G04*
G04 #@! TF.GenerationSoftware,Altium Limited,Altium Designer,19.0.15 (446)*
G04*
G04 Layer_Physical_Order=2*
G04 Layer_Color=16711680*
%FSLAX25Y25*%
%MOIN*%
G70*
G01*
G75*
%ADD12C,0.00787*%
%ADD14C,0.00591*%
%ADD73R,0.06102X0.06102*%
%ADD74C,0.06102*%
%ADD75C,0.06299*%
%ADD76R,0.06299X0.06299*%
%ADD77R,0.05118X0.05118*%
%ADD78C,0.05118*%
%ADD79C,0.02362*%
G36*
X304298Y238038D02*
X305014Y237741D01*
X305659Y237310D01*
X306208Y236762D01*
X306639Y236117D01*
X306935Y235400D01*
X307087Y234640D01*
Y234252D01*
Y141732D01*
Y141341D01*
X306787Y140617D01*
X306233Y140064D01*
X305510Y139764D01*
X140166D01*
X139025Y139991D01*
X137951Y140436D01*
X136984Y141082D01*
X136161Y141905D01*
X135515Y142872D01*
X135070Y143947D01*
X134843Y145088D01*
Y145669D01*
Y162402D01*
X134819Y162884D01*
X134631Y163830D01*
X134261Y164721D01*
X133725Y165524D01*
X133043Y166206D01*
X132241Y166742D01*
X131350Y167111D01*
X130404Y167299D01*
X129921Y167323D01*
X106799D01*
X105848Y167512D01*
X104952Y167883D01*
X104146Y168421D01*
X103461Y169107D01*
X102922Y169913D01*
X102551Y170809D01*
X102362Y171759D01*
Y172244D01*
Y235236D01*
Y235527D01*
X102476Y236098D01*
X102698Y236635D01*
X103021Y237119D01*
X103433Y237530D01*
X103916Y237853D01*
X104454Y238075D01*
X105024Y238189D01*
X303537D01*
X304298Y238038D01*
D02*
G37*
%LPC*%
G36*
X300500Y234120D02*
Y230500D01*
X304120D01*
X304043Y231083D01*
X303625Y232093D01*
X302959Y232960D01*
X302093Y233625D01*
X301083Y234043D01*
X300500Y234120D01*
D02*
G37*
G36*
X120500D02*
Y230500D01*
X124120D01*
X124043Y231083D01*
X123625Y232093D01*
X122959Y232960D01*
X122093Y233625D01*
X121083Y234043D01*
X120500Y234120D01*
D02*
G37*
G36*
X119500D02*
X118917Y234043D01*
X117907Y233625D01*
X117041Y232960D01*
X116375Y232093D01*
X115957Y231083D01*
X115880Y230500D01*
X119500D01*
Y234120D01*
D02*
G37*
G36*
X299500D02*
X298917Y234043D01*
X297907Y233625D01*
X297041Y232960D01*
X296375Y232093D01*
X295957Y231083D01*
X295880Y230500D01*
X299500D01*
Y234120D01*
D02*
G37*
G36*
X290000Y233772D02*
X289024Y233644D01*
X288114Y233267D01*
X287333Y232667D01*
X286733Y231886D01*
X286356Y230976D01*
X286228Y230000D01*
X286356Y229024D01*
X286733Y228114D01*
X287333Y227332D01*
X288114Y226733D01*
X289024Y226356D01*
X290000Y226228D01*
X290976Y226356D01*
X291886Y226733D01*
X292668Y227332D01*
X293267Y228114D01*
X293644Y229024D01*
X293772Y230000D01*
X293644Y230976D01*
X293267Y231886D01*
X292668Y232667D01*
X291886Y233267D01*
X290976Y233644D01*
X290000Y233772D01*
D02*
G37*
G36*
X110000D02*
X109024Y233644D01*
X108114Y233267D01*
X107333Y232667D01*
X106733Y231886D01*
X106356Y230976D01*
X106228Y230000D01*
X106356Y229024D01*
X106733Y228114D01*
X107333Y227332D01*
X108114Y226733D01*
X109024Y226356D01*
X110000Y226228D01*
X110976Y226356D01*
X111886Y226733D01*
X112668Y227332D01*
X113267Y228114D01*
X113644Y229024D01*
X113772Y230000D01*
X113644Y230976D01*
X113267Y231886D01*
X112668Y232667D01*
X111886Y233267D01*
X110976Y233644D01*
X110000Y233772D01*
D02*
G37*
G36*
X124120Y229500D02*
X120500D01*
Y225880D01*
X121083Y225957D01*
X122093Y226375D01*
X122959Y227041D01*
X123625Y227907D01*
X124043Y228917D01*
X124120Y229500D01*
D02*
G37*
G36*
X304120D02*
X300500D01*
Y225880D01*
X301083Y225957D01*
X302093Y226375D01*
X302959Y227041D01*
X303625Y227907D01*
X304043Y228917D01*
X304120Y229500D01*
D02*
G37*
G36*
X299500D02*
X295880D01*
X295957Y228917D01*
X296375Y227907D01*
X297041Y227041D01*
X297907Y226375D01*
X298917Y225957D01*
X299500Y225880D01*
Y229500D01*
D02*
G37*
G36*
X119500D02*
X115880D01*
X115957Y228917D01*
X116375Y227907D01*
X117041Y227041D01*
X117907Y226375D01*
X118917Y225957D01*
X119500Y225880D01*
Y229500D01*
D02*
G37*
G36*
X300500Y224120D02*
Y220500D01*
X304120D01*
X304043Y221083D01*
X303625Y222093D01*
X302959Y222959D01*
X302093Y223625D01*
X301083Y224043D01*
X300500Y224120D01*
D02*
G37*
G36*
X120500D02*
Y220500D01*
X124120D01*
X124043Y221083D01*
X123625Y222093D01*
X122959Y222959D01*
X122093Y223625D01*
X121083Y224043D01*
X120500Y224120D01*
D02*
G37*
G36*
X119500D02*
X118917Y224043D01*
X117907Y223625D01*
X117041Y222959D01*
X116375Y222093D01*
X115957Y221083D01*
X115880Y220500D01*
X119500D01*
Y224120D01*
D02*
G37*
G36*
X299500D02*
X298917Y224043D01*
X297907Y223625D01*
X297041Y222959D01*
X296375Y222093D01*
X295957Y221083D01*
X295880Y220500D01*
X299500D01*
Y224120D01*
D02*
G37*
G36*
X290000Y223772D02*
X289024Y223644D01*
X288114Y223267D01*
X287333Y222668D01*
X286733Y221886D01*
X286356Y220976D01*
X286228Y220000D01*
X286356Y219024D01*
X286733Y218114D01*
X287333Y217333D01*
X288114Y216733D01*
X289024Y216356D01*
X290000Y216228D01*
X290976Y216356D01*
X291886Y216733D01*
X292668Y217333D01*
X293267Y218114D01*
X293644Y219024D01*
X293772Y220000D01*
X293644Y220976D01*
X293267Y221886D01*
X292668Y222668D01*
X291886Y223267D01*
X290976Y223644D01*
X290000Y223772D01*
D02*
G37*
G36*
X110000D02*
X109024Y223644D01*
X108114Y223267D01*
X107333Y222668D01*
X106733Y221886D01*
X106356Y220976D01*
X106228Y220000D01*
X106356Y219024D01*
X106733Y218114D01*
X107333Y217333D01*
X108114Y216733D01*
X109024Y216356D01*
X110000Y216228D01*
X110976Y216356D01*
X111886Y216733D01*
X112668Y217333D01*
X113267Y218114D01*
X113644Y219024D01*
X113772Y220000D01*
X113644Y220976D01*
X113267Y221886D01*
X112668Y222668D01*
X111886Y223267D01*
X110976Y223644D01*
X110000Y223772D01*
D02*
G37*
G36*
X124120Y219500D02*
X120500D01*
Y215880D01*
X121083Y215957D01*
X122093Y216375D01*
X122959Y217040D01*
X123625Y217907D01*
X124043Y218917D01*
X124120Y219500D01*
D02*
G37*
G36*
X304120D02*
X300500D01*
Y215880D01*
X301083Y215957D01*
X302093Y216375D01*
X302959Y217040D01*
X303625Y217907D01*
X304043Y218917D01*
X304120Y219500D01*
D02*
G37*
G36*
X299500D02*
X295880D01*
X295957Y218917D01*
X296375Y217907D01*
X297041Y217040D01*
X297907Y216375D01*
X298917Y215957D01*
X299500Y215880D01*
Y219500D01*
D02*
G37*
G36*
X119500D02*
X115880D01*
X115957Y218917D01*
X116375Y217907D01*
X117041Y217040D01*
X117907Y216375D01*
X118917Y215957D01*
X119500Y215880D01*
Y219500D01*
D02*
G37*
G36*
X300500Y214120D02*
Y210500D01*
X304120D01*
X304043Y211083D01*
X303625Y212093D01*
X302959Y212960D01*
X302093Y213625D01*
X301083Y214043D01*
X300500Y214120D01*
D02*
G37*
G36*
X120500D02*
Y210500D01*
X124120D01*
X124043Y211083D01*
X123625Y212093D01*
X122959Y212960D01*
X122093Y213625D01*
X121083Y214043D01*
X120500Y214120D01*
D02*
G37*
G36*
X299500D02*
X298917Y214043D01*
X297907Y213625D01*
X297041Y212960D01*
X296375Y212093D01*
X295957Y211083D01*
X295880Y210500D01*
X299500D01*
Y214120D01*
D02*
G37*
G36*
X119500D02*
X118917Y214043D01*
X117907Y213625D01*
X117041Y212960D01*
X116375Y212093D01*
X115957Y211083D01*
X115880Y210500D01*
X119500D01*
Y214120D01*
D02*
G37*
G36*
X290000Y213772D02*
X289024Y213644D01*
X288114Y213267D01*
X287333Y212667D01*
X286733Y211886D01*
X286356Y210976D01*
X286228Y210000D01*
X286356Y209024D01*
X286733Y208114D01*
X287333Y207332D01*
X288114Y206733D01*
X289024Y206356D01*
X290000Y206228D01*
X290976Y206356D01*
X291886Y206733D01*
X292668Y207332D01*
X293267Y208114D01*
X293644Y209024D01*
X293772Y210000D01*
X293644Y210976D01*
X293267Y211886D01*
X292668Y212667D01*
X291886Y213267D01*
X290976Y213644D01*
X290000Y213772D01*
D02*
G37*
G36*
X110000D02*
X109024Y213644D01*
X108114Y213267D01*
X107333Y212667D01*
X106733Y211886D01*
X106356Y210976D01*
X106228Y210000D01*
X106356Y209024D01*
X106733Y208114D01*
X107333Y207332D01*
X108114Y206733D01*
X109024Y206356D01*
X110000Y206228D01*
X110976Y206356D01*
X111886Y206733D01*
X112668Y207332D01*
X113267Y208114D01*
X113644Y209024D01*
X113772Y210000D01*
X113644Y210976D01*
X113267Y211886D01*
X112668Y212667D01*
X111886Y213267D01*
X110976Y213644D01*
X110000Y213772D01*
D02*
G37*
G36*
X124120Y209500D02*
X120500D01*
Y205880D01*
X121083Y205957D01*
X122093Y206375D01*
X122959Y207041D01*
X123625Y207907D01*
X124043Y208917D01*
X124120Y209500D01*
D02*
G37*
G36*
X304120D02*
X300500D01*
Y205880D01*
X301083Y205957D01*
X302093Y206375D01*
X302959Y207041D01*
X303625Y207907D01*
X304043Y208917D01*
X304120Y209500D01*
D02*
G37*
G36*
X299500D02*
X295880D01*
X295957Y208917D01*
X296375Y207907D01*
X297041Y207041D01*
X297907Y206375D01*
X298917Y205957D01*
X299500Y205880D01*
Y209500D01*
D02*
G37*
G36*
X119500D02*
X115880D01*
X115957Y208917D01*
X116375Y207907D01*
X117041Y207041D01*
X117907Y206375D01*
X118917Y205957D01*
X119500Y205880D01*
Y209500D01*
D02*
G37*
G36*
X300500Y204120D02*
Y200500D01*
X304120D01*
X304043Y201083D01*
X303625Y202093D01*
X302959Y202959D01*
X302093Y203625D01*
X301083Y204043D01*
X300500Y204120D01*
D02*
G37*
G36*
X120500D02*
Y200500D01*
X124120D01*
X124043Y201083D01*
X123625Y202093D01*
X122959Y202959D01*
X122093Y203625D01*
X121083Y204043D01*
X120500Y204120D01*
D02*
G37*
G36*
X299500D02*
X298917Y204043D01*
X297907Y203625D01*
X297041Y202959D01*
X296375Y202093D01*
X295957Y201083D01*
X295880Y200500D01*
X299500D01*
Y204120D01*
D02*
G37*
G36*
X119500D02*
X118917Y204043D01*
X117907Y203625D01*
X117041Y202959D01*
X116375Y202093D01*
X115957Y201083D01*
X115880Y200500D01*
X119500D01*
Y204120D01*
D02*
G37*
G36*
X290000Y203772D02*
X289024Y203644D01*
X288114Y203267D01*
X287333Y202667D01*
X286733Y201886D01*
X286356Y200976D01*
X286228Y200000D01*
X286356Y199024D01*
X286733Y198114D01*
X287333Y197333D01*
X288114Y196733D01*
X289024Y196356D01*
X290000Y196228D01*
X290976Y196356D01*
X291886Y196733D01*
X292668Y197333D01*
X293267Y198114D01*
X293644Y199024D01*
X293772Y200000D01*
X293644Y200976D01*
X293267Y201886D01*
X292668Y202667D01*
X291886Y203267D01*
X290976Y203644D01*
X290000Y203772D01*
D02*
G37*
G36*
X110000D02*
X109024Y203644D01*
X108114Y203267D01*
X107333Y202667D01*
X106733Y201886D01*
X106356Y200976D01*
X106228Y200000D01*
X106356Y199024D01*
X106733Y198114D01*
X107333Y197333D01*
X108114Y196733D01*
X109024Y196356D01*
X110000Y196228D01*
X110976Y196356D01*
X111886Y196733D01*
X112668Y197333D01*
X113267Y198114D01*
X113644Y199024D01*
X113772Y200000D01*
X113644Y200976D01*
X113267Y201886D01*
X112668Y202667D01*
X111886Y203267D01*
X110976Y203644D01*
X110000Y203772D01*
D02*
G37*
G36*
X124120Y199500D02*
X120500D01*
Y195880D01*
X121083Y195957D01*
X122093Y196375D01*
X122959Y197040D01*
X123625Y197907D01*
X124043Y198917D01*
X124120Y199500D01*
D02*
G37*
G36*
X304120D02*
X300500D01*
Y195880D01*
X301083Y195957D01*
X302093Y196375D01*
X302959Y197040D01*
X303625Y197907D01*
X304043Y198917D01*
X304120Y199500D01*
D02*
G37*
G36*
X299500D02*
X295880D01*
X295957Y198917D01*
X296375Y197907D01*
X297041Y197040D01*
X297907Y196375D01*
X298917Y195957D01*
X299500Y195880D01*
Y199500D01*
D02*
G37*
G36*
X119500D02*
X115880D01*
X115957Y198917D01*
X116375Y197907D01*
X117041Y197040D01*
X117907Y196375D01*
X118917Y195957D01*
X119500Y195880D01*
Y199500D01*
D02*
G37*
G36*
X204331Y202200D02*
X203640Y202063D01*
X203053Y201671D01*
X202662Y201085D01*
X202524Y200394D01*
X202662Y199702D01*
X203053Y199116D01*
X203640Y198725D01*
X204331Y198587D01*
X204654Y198652D01*
X206871Y196435D01*
Y193980D01*
X206597Y193797D01*
X206205Y193211D01*
X206068Y192520D01*
X206205Y191828D01*
X206597Y191242D01*
X207183Y190851D01*
X207874Y190713D01*
X208565Y190851D01*
X209151Y191242D01*
X209543Y191828D01*
X209680Y192520D01*
X209543Y193211D01*
X209151Y193797D01*
X208878Y193980D01*
Y196850D01*
X208801Y197234D01*
X208584Y197560D01*
X206073Y200071D01*
X206137Y200394D01*
X206000Y201085D01*
X205608Y201671D01*
X205022Y202063D01*
X204331Y202200D01*
D02*
G37*
G36*
X300500Y194120D02*
Y190500D01*
X304120D01*
X304043Y191083D01*
X303625Y192093D01*
X302959Y192959D01*
X302093Y193625D01*
X301083Y194043D01*
X300500Y194120D01*
D02*
G37*
G36*
X120500D02*
Y190500D01*
X124120D01*
X124043Y191083D01*
X123625Y192093D01*
X122959Y192959D01*
X122093Y193625D01*
X121083Y194043D01*
X120500Y194120D01*
D02*
G37*
G36*
X299500D02*
X298917Y194043D01*
X297907Y193625D01*
X297041Y192959D01*
X296375Y192093D01*
X295957Y191083D01*
X295880Y190500D01*
X299500D01*
Y194120D01*
D02*
G37*
G36*
X119500D02*
X118917Y194043D01*
X117907Y193625D01*
X117041Y192959D01*
X116375Y192093D01*
X115957Y191083D01*
X115880Y190500D01*
X119500D01*
Y194120D01*
D02*
G37*
G36*
X266248Y191910D02*
Y188886D01*
X269272D01*
X269215Y189315D01*
X268857Y190181D01*
X268286Y190924D01*
X267543Y191495D01*
X266677Y191853D01*
X266248Y191910D01*
D02*
G37*
G36*
X265248D02*
X264819Y191853D01*
X263953Y191495D01*
X263210Y190924D01*
X262639Y190181D01*
X262281Y189315D01*
X262224Y188886D01*
X265248D01*
Y191910D01*
D02*
G37*
G36*
X290000Y193772D02*
X289024Y193644D01*
X288114Y193267D01*
X287333Y192667D01*
X286733Y191886D01*
X286356Y190976D01*
X286228Y190000D01*
X286356Y189024D01*
X286733Y188114D01*
X287333Y187332D01*
X288114Y186733D01*
X289024Y186356D01*
X290000Y186228D01*
X290976Y186356D01*
X291886Y186733D01*
X292668Y187332D01*
X293267Y188114D01*
X293644Y189024D01*
X293772Y190000D01*
X293644Y190976D01*
X293267Y191886D01*
X292668Y192667D01*
X291886Y193267D01*
X290976Y193644D01*
X290000Y193772D01*
D02*
G37*
G36*
X110000D02*
X109024Y193644D01*
X108114Y193267D01*
X107333Y192667D01*
X106733Y191886D01*
X106356Y190976D01*
X106228Y190000D01*
X106356Y189024D01*
X106733Y188114D01*
X107333Y187332D01*
X108114Y186733D01*
X109024Y186356D01*
X110000Y186228D01*
X110976Y186356D01*
X111886Y186733D01*
X112668Y187332D01*
X113267Y188114D01*
X113644Y189024D01*
X113772Y190000D01*
X113644Y190976D01*
X113267Y191886D01*
X112668Y192667D01*
X111886Y193267D01*
X110976Y193644D01*
X110000Y193772D01*
D02*
G37*
G36*
X124120Y189500D02*
X120500D01*
Y185880D01*
X121083Y185957D01*
X122093Y186375D01*
X122959Y187040D01*
X123625Y187907D01*
X124043Y188917D01*
X124120Y189500D01*
D02*
G37*
G36*
X304120D02*
X300500D01*
Y185880D01*
X301083Y185957D01*
X302093Y186375D01*
X302959Y187040D01*
X303625Y187907D01*
X304043Y188917D01*
X304120Y189500D01*
D02*
G37*
G36*
X299500D02*
X295880D01*
X295957Y188917D01*
X296375Y187907D01*
X297041Y187040D01*
X297907Y186375D01*
X298917Y185957D01*
X299500Y185880D01*
Y189500D01*
D02*
G37*
G36*
X119500D02*
X115880D01*
X115957Y188917D01*
X116375Y187907D01*
X117041Y187040D01*
X117907Y186375D01*
X118917Y185957D01*
X119500Y185880D01*
Y189500D01*
D02*
G37*
G36*
X269272Y187886D02*
X266248D01*
Y184862D01*
X266677Y184918D01*
X267543Y185277D01*
X268286Y185847D01*
X268857Y186591D01*
X269215Y187457D01*
X269272Y187886D01*
D02*
G37*
G36*
X265248D02*
X262224D01*
X262281Y187457D01*
X262639Y186591D01*
X263210Y185847D01*
X263953Y185277D01*
X264819Y184918D01*
X265248Y184862D01*
Y187886D01*
D02*
G37*
G36*
X207042Y187161D02*
X206351Y187023D01*
X205765Y186632D01*
X205373Y186046D01*
X205302Y185688D01*
X205227Y185639D01*
X205227Y185639D01*
X198079Y178490D01*
X197638Y178578D01*
X196947Y178440D01*
X196361Y178049D01*
X195969Y177463D01*
X195831Y176772D01*
X195969Y176080D01*
X196361Y175494D01*
X196947Y175103D01*
X197638Y174965D01*
X198329Y175103D01*
X198915Y175494D01*
X199307Y176080D01*
X199444Y176772D01*
X199356Y177213D01*
X206038Y183895D01*
X206351Y183686D01*
X207042Y183548D01*
X207733Y183686D01*
X208319Y184077D01*
X208711Y184663D01*
X208848Y185354D01*
X208711Y186046D01*
X208319Y186632D01*
X207733Y187023D01*
X207042Y187161D01*
D02*
G37*
G36*
X304150Y184150D02*
X300500D01*
Y180500D01*
X304150D01*
Y184150D01*
D02*
G37*
G36*
X124150D02*
X120500D01*
Y180500D01*
X124150D01*
Y184150D01*
D02*
G37*
G36*
X299500D02*
X295850D01*
Y180500D01*
X299500D01*
Y184150D01*
D02*
G37*
G36*
X119500D02*
X115850D01*
Y180500D01*
X119500D01*
Y184150D01*
D02*
G37*
G36*
X293740Y183740D02*
X286260D01*
Y176260D01*
X293740D01*
Y183740D01*
D02*
G37*
G36*
X113740D02*
X106260D01*
Y176260D01*
X113740D01*
Y183740D01*
D02*
G37*
G36*
X304150Y179500D02*
X300500D01*
Y175850D01*
X304150D01*
Y179500D01*
D02*
G37*
G36*
X299500D02*
X295850D01*
Y175850D01*
X299500D01*
Y179500D01*
D02*
G37*
G36*
X124150D02*
X120500D01*
Y175850D01*
X124150D01*
Y179500D01*
D02*
G37*
G36*
X119500D02*
X115850D01*
Y175850D01*
X119500D01*
Y179500D01*
D02*
G37*
G36*
X268898Y181693D02*
X262598D01*
Y175394D01*
X268898D01*
Y181693D01*
D02*
G37*
G36*
X300658Y159926D02*
Y156405D01*
X304178D01*
X304104Y156963D01*
X303696Y157949D01*
X303047Y158795D01*
X302201Y159444D01*
X301215Y159852D01*
X300658Y159926D01*
D02*
G37*
G36*
X299658D02*
X299100Y159852D01*
X298114Y159444D01*
X297268Y158795D01*
X296619Y157949D01*
X296211Y156963D01*
X296137Y156405D01*
X299658D01*
Y159926D01*
D02*
G37*
G36*
X284209Y159957D02*
X280658D01*
Y156405D01*
X284209D01*
Y159957D01*
D02*
G37*
G36*
X279658D02*
X276106D01*
Y156405D01*
X279658D01*
Y159957D01*
D02*
G37*
G36*
X290158Y159579D02*
X289207Y159453D01*
X288321Y159087D01*
X287560Y158503D01*
X286976Y157742D01*
X286610Y156856D01*
X286484Y155905D01*
X286610Y154955D01*
X286976Y154069D01*
X287560Y153308D01*
X288321Y152725D01*
X289207Y152357D01*
X290158Y152232D01*
X291108Y152357D01*
X291994Y152725D01*
X292755Y153308D01*
X293338Y154069D01*
X293706Y154955D01*
X293831Y155905D01*
X293706Y156856D01*
X293338Y157742D01*
X292755Y158503D01*
X291994Y159087D01*
X291108Y159453D01*
X290158Y159579D01*
D02*
G37*
G36*
X304178Y155405D02*
X300658D01*
Y151885D01*
X301215Y151959D01*
X302201Y152367D01*
X303047Y153016D01*
X303696Y153862D01*
X304104Y154848D01*
X304178Y155405D01*
D02*
G37*
G36*
X299658D02*
X296137D01*
X296211Y154848D01*
X296619Y153862D01*
X297268Y153016D01*
X298114Y152367D01*
X299100Y151959D01*
X299658Y151885D01*
Y155405D01*
D02*
G37*
G36*
X284209D02*
X280658D01*
Y151854D01*
X284209D01*
Y155405D01*
D02*
G37*
G36*
X279658D02*
X276106D01*
Y151854D01*
X279658D01*
Y155405D01*
D02*
G37*
%LPD*%
D12*
X204331Y200394D02*
X207874Y196850D01*
Y192520D02*
Y196850D01*
D14*
X207042Y185346D02*
Y185354D01*
X206696Y185000D02*
X207042Y185346D01*
X205866Y185000D02*
X206696D01*
X197638Y176772D02*
X205866Y185000D01*
D73*
X280157Y155905D02*
D03*
D74*
X290158D02*
D03*
X300157D02*
D03*
D75*
X120000Y220000D02*
D03*
Y210000D02*
D03*
Y200000D02*
D03*
Y190000D02*
D03*
Y230000D02*
D03*
X110000Y220000D02*
D03*
Y210000D02*
D03*
Y200000D02*
D03*
Y190000D02*
D03*
Y230000D02*
D03*
X300000Y220000D02*
D03*
Y210000D02*
D03*
Y200000D02*
D03*
Y190000D02*
D03*
Y230000D02*
D03*
X290000Y220000D02*
D03*
Y210000D02*
D03*
Y200000D02*
D03*
Y190000D02*
D03*
Y230000D02*
D03*
D76*
X120000Y180000D02*
D03*
X110000D02*
D03*
X300000D02*
D03*
X290000D02*
D03*
D77*
X265748Y178543D02*
D03*
D78*
Y188386D02*
D03*
D79*
X232283Y189370D02*
D03*
X238583D02*
D03*
X244094D02*
D03*
X225984Y151518D02*
D03*
Y175652D02*
D03*
X226063Y167323D02*
D03*
Y159370D02*
D03*
X235827Y164587D02*
D03*
Y168898D02*
D03*
Y172835D02*
D03*
Y176772D02*
D03*
X295275Y165354D02*
D03*
X283465D02*
D03*
X277559Y200787D02*
D03*
Y177165D02*
D03*
X253937Y200787D02*
D03*
X248031Y188976D02*
D03*
X147638Y153543D02*
D03*
X135827Y177165D02*
D03*
X275591Y196850D02*
D03*
X195905Y187953D02*
D03*
X192953Y185000D02*
D03*
Y190905D02*
D03*
X198858Y185000D02*
D03*
Y190905D02*
D03*
X132874Y206693D02*
D03*
X166535Y193307D02*
D03*
X278740Y216535D02*
D03*
X278543Y221091D02*
D03*
X267756Y218917D02*
D03*
Y221738D02*
D03*
Y224409D02*
D03*
X269921Y212093D02*
D03*
Y214567D02*
D03*
X148819Y157874D02*
D03*
Y181745D02*
D03*
Y175652D02*
D03*
Y172441D02*
D03*
Y166929D02*
D03*
Y163701D02*
D03*
X203543Y219614D02*
D03*
X136614Y229921D02*
D03*
X136614Y227332D02*
D03*
X133858Y209055D02*
D03*
Y213625D02*
D03*
X134991Y199213D02*
D03*
X131496Y202959D02*
D03*
X148819Y187323D02*
D03*
Y178859D02*
D03*
Y169743D02*
D03*
Y160945D02*
D03*
X185039Y193504D02*
D03*
X169291Y193228D02*
D03*
X166535Y198425D02*
D03*
Y201457D02*
D03*
X200827Y219614D02*
D03*
X190551Y212093D02*
D03*
X190354Y207303D02*
D03*
X192913Y165157D02*
D03*
X194882Y168110D02*
D03*
X190881D02*
D03*
X192913Y171260D02*
D03*
X194882Y174409D02*
D03*
X191245Y174468D02*
D03*
X207042Y185354D02*
D03*
X197638Y176772D02*
D03*
X204331Y200394D02*
D03*
X207874Y192520D02*
D03*
X180315Y182677D02*
D03*
M02*
