G04*
G04 #@! TF.GenerationSoftware,Altium Limited,Altium Designer,19.0.15 (446)*
G04*
G04 Layer_Color=32896*
%FSLAX25Y25*%
%MOIN*%
G70*
G01*
G75*
%ADD10C,0.00984*%
%ADD11C,0.01000*%
D10*
X227691Y141732D02*
X230315D01*
X227691Y144356D01*
Y145012D01*
X228347Y145668D01*
X229659D01*
X230315Y145012D01*
X226379Y141732D02*
Y142388D01*
X225723D01*
Y141732D01*
X226379D01*
X223099Y145668D02*
X220476D01*
Y145012D01*
X223099Y142388D01*
Y141732D01*
X219164Y143700D02*
X216540D01*
X212604Y145668D02*
X215228D01*
Y143700D01*
X213916Y144356D01*
X213260D01*
X212604Y143700D01*
Y142388D01*
X213260Y141732D01*
X214572D01*
X215228Y142388D01*
X211292Y141732D02*
Y142388D01*
X210636D01*
Y141732D01*
X211292D01*
X205389Y145668D02*
X208012D01*
Y143700D01*
X206700Y144356D01*
X206045D01*
X205389Y143700D01*
Y142388D01*
X206045Y141732D01*
X207357D01*
X208012Y142388D01*
X204077Y145668D02*
Y143044D01*
X202765Y141732D01*
X201453Y143044D01*
Y145668D01*
X196205D02*
Y143044D01*
X194893Y141732D01*
X193581Y143044D01*
Y145668D01*
X192270D02*
X190958D01*
X191613D01*
Y141732D01*
X192270D01*
X190958D01*
X188990D02*
Y145668D01*
X186366Y141732D01*
Y145668D01*
X181118Y141732D02*
Y145668D01*
X179806Y144356D01*
X178494Y145668D01*
Y141732D01*
X177182D02*
Y144356D01*
X175871Y145668D01*
X174559Y144356D01*
Y141732D01*
Y143700D01*
X177182D01*
X173247Y145668D02*
X170623Y141732D01*
Y145668D02*
X173247Y141732D01*
X230315Y215222D02*
Y212598D01*
Y213910D01*
X229659Y214566D01*
X229003Y215222D01*
X228347D01*
X224411Y212598D02*
X225723D01*
X226379Y213254D01*
Y214566D01*
X225723Y215222D01*
X224411D01*
X223755Y214566D01*
Y213910D01*
X226379D01*
X222444Y215222D02*
X221132Y212598D01*
X219820Y215222D01*
X218508Y212598D02*
Y213254D01*
X217852D01*
Y212598D01*
X218508D01*
X208668D02*
X211292D01*
X208668Y215222D01*
Y215878D01*
X209324Y216534D01*
X210636D01*
X211292Y215878D01*
X207357D02*
X206700Y216534D01*
X205389D01*
X204733Y215878D01*
Y213254D01*
X205389Y212598D01*
X206700D01*
X207357Y213254D01*
Y215878D01*
X203421Y212598D02*
X202109D01*
X202765D01*
Y216534D01*
X203421Y215878D01*
X200141Y213254D02*
X199485Y212598D01*
X198173D01*
X197517Y213254D01*
Y215878D01*
X198173Y216534D01*
X199485D01*
X200141Y215878D01*
Y215222D01*
X199485Y214566D01*
X197517D01*
X196205D02*
X193581D01*
X192270Y215878D02*
X191613Y216534D01*
X190302D01*
X189646Y215878D01*
Y213254D01*
X190302Y212598D01*
X191613D01*
X192270Y213254D01*
Y215878D01*
X230315Y219488D02*
Y222112D01*
X229003Y223424D01*
X227691Y222112D01*
Y219488D01*
Y221456D01*
X230315D01*
X226379Y219488D02*
Y222112D01*
X224411D01*
X223755Y221456D01*
Y219488D01*
X219820Y223424D02*
Y219488D01*
X221788D01*
X222444Y220144D01*
Y221456D01*
X221788Y222112D01*
X219820D01*
X218508D02*
Y219488D01*
Y220800D01*
X217852Y221456D01*
X217196Y222112D01*
X216540D01*
X212604Y219488D02*
X213916D01*
X214572Y220144D01*
Y221456D01*
X213916Y222112D01*
X212604D01*
X211948Y221456D01*
Y220800D01*
X214572D01*
X209980Y222112D02*
X208668D01*
X208012Y221456D01*
Y219488D01*
X209980D01*
X210636Y220144D01*
X209980Y220800D01*
X208012D01*
X206700Y219488D02*
X204733D01*
X204077Y220144D01*
X204733Y220800D01*
X206045D01*
X206700Y221456D01*
X206045Y222112D01*
X204077D01*
X198829Y223424D02*
Y219488D01*
Y220800D01*
X196205Y223424D01*
X198173Y221456D01*
X196205Y219488D01*
X192925D02*
X194237D01*
X194893Y220144D01*
Y221456D01*
X194237Y222112D01*
X192925D01*
X192270Y221456D01*
Y220800D01*
X194893D01*
X190958Y219488D02*
X189646D01*
X190302D01*
Y223424D01*
X190958D01*
X187678Y219488D02*
X186366D01*
X187022D01*
Y223424D01*
X187678D01*
X182430Y219488D02*
X183742D01*
X184398Y220144D01*
Y221456D01*
X183742Y222112D01*
X182430D01*
X181774Y221456D01*
Y220800D01*
X184398D01*
X180462Y222112D02*
Y219488D01*
Y220800D01*
X179806Y221456D01*
X179150Y222112D01*
X178494D01*
X176526Y219488D02*
Y222112D01*
X175871D01*
X175215Y221456D01*
Y219488D01*
Y221456D01*
X174559Y222112D01*
X173903Y221456D01*
Y219488D01*
X171935Y222112D02*
X170623D01*
X169967Y221456D01*
Y219488D01*
X171935D01*
X172591Y220144D01*
X171935Y220800D01*
X169967D01*
X168655Y219488D02*
Y222112D01*
X166687D01*
X166031Y221456D01*
Y219488D01*
X164719D02*
Y222112D01*
X162751D01*
X162095Y221456D01*
Y219488D01*
X230315Y230314D02*
Y226378D01*
X228347D01*
X227691Y227034D01*
Y227690D01*
X228347Y228346D01*
X230315D01*
X228347D01*
X227691Y229002D01*
Y229658D01*
X228347Y230314D01*
X230315D01*
X225723Y226378D02*
X224411D01*
X223755Y227034D01*
Y228346D01*
X224411Y229002D01*
X225723D01*
X226379Y228346D01*
Y227034D01*
X225723Y226378D01*
X221788Y229002D02*
X220476D01*
X219820Y228346D01*
Y226378D01*
X221788D01*
X222444Y227034D01*
X221788Y227690D01*
X219820D01*
X218508Y229002D02*
Y226378D01*
Y227690D01*
X217852Y228346D01*
X217196Y229002D01*
X216540D01*
X211948Y230314D02*
Y226378D01*
X213916D01*
X214572Y227034D01*
Y228346D01*
X213916Y229002D01*
X211948D01*
X208012Y229658D02*
X208668Y230314D01*
X209980D01*
X210636Y229658D01*
Y227034D01*
X209980Y226378D01*
X208668D01*
X208012Y227034D01*
X206045Y226378D02*
X204733D01*
X204077Y227034D01*
Y228346D01*
X204733Y229002D01*
X206045D01*
X206700Y228346D01*
Y227034D01*
X206045Y226378D01*
X202765D02*
Y229002D01*
X202109D01*
X201453Y228346D01*
Y226378D01*
Y228346D01*
X200797Y229002D01*
X200141Y228346D01*
Y226378D01*
X198829Y225066D02*
Y229002D01*
X196861D01*
X196205Y228346D01*
Y227034D01*
X196861Y226378D01*
X198829D01*
X194237Y229002D02*
X192925D01*
X192270Y228346D01*
Y226378D01*
X194237D01*
X194893Y227034D01*
X194237Y227690D01*
X192270D01*
X190958Y226378D02*
Y229002D01*
X188990D01*
X188334Y228346D01*
Y226378D01*
X187022D02*
X185710D01*
X186366D01*
Y229002D01*
X187022D01*
X183086Y226378D02*
X181774D01*
X181118Y227034D01*
Y228346D01*
X181774Y229002D01*
X183086D01*
X183742Y228346D01*
Y227034D01*
X183086Y226378D01*
X179806D02*
Y229002D01*
X177838D01*
X177182Y228346D01*
Y226378D01*
D11*
X285354Y143701D02*
G03*
X290354Y148701I0J5000D01*
G01*
Y151575D01*
X232283Y143701D02*
X285354D01*
M02*
