M48
;Layer_Color=9474304
;FILE_FORMAT=2:5
INCH,LZ
;TYPE=PLATED
T1F00S00C0.01181
T2F00S00C0.03150
T3F00S00C0.04134
T4F00S00C0.04256
%
T01
X0147638Y0153543
X0225984Y0151518
X0226063Y015937
Y0167323
X0225984Y0175652
X0235827Y0176772
Y0172835
Y0168898
Y0164587
X0238583Y018937
X0244094
X0248031Y0188976
X0232283Y018937
X0207874Y019252
X0207042Y0185354
X0198858Y0185
X0195905Y0187953
X0192953Y0185
Y0190905
X0198858
X0204331Y0200394
X0203543Y0219614
X0200827
X0190551Y0212093
X0190354Y0207303
X0185039Y0193504
X0180315Y0182677
X0191245Y0174468
X0194882Y0174409
X0192913Y017126
X0194882Y016811
X0190881
X0192913Y0165157
X0197638Y0176772
X0169291Y0193228
X0166535Y0193307
Y0198425
Y0201457
X0253937Y0200787
X0277559
X0275591Y019685
X0269921Y0212093
Y0214567
X0267756Y0218917
Y0221738
Y0224409
X0278543Y0221091
X027874Y0216535
X0277559Y0177165
X0283465Y0165354
X0295275
X0148819Y0166929
Y0169743
Y0172441
Y0175652
Y0178859
Y0181745
Y0187323
X0135827Y0177165
X0134991Y0199213
X0131496Y0202959
X0132874Y0206693
X0133858Y0209055
Y0213625
X0136614Y0227332
X0136614Y0229921
X0148819Y0163701
Y0160945
Y0157874
T02
X0265748Y0178543
Y0188386
T03
X0280157Y0155905
X0290158
X0300157
T04
X029Y018
X03
Y019
Y02
Y021
Y022
Y023
X029
Y022
Y021
Y02
Y019
X012
Y02
Y021
Y022
Y023
X011
Y022
Y021
Y02
Y019
Y018
X012
M30
