G04*
G04 #@! TF.GenerationSoftware,Altium Limited,Altium Designer,19.0.15 (446)*
G04*
G04 Layer_Color=65535*
%FSLAX25Y25*%
%MOIN*%
G70*
G01*
G75*
%ADD10C,0.00984*%
%ADD11C,0.01000*%
%ADD12C,0.00787*%
%ADD13C,0.01575*%
%ADD14C,0.00591*%
D10*
X247061Y141358D02*
G03*
X247061Y141358I-492J0D01*
G01*
X253425Y149547D02*
G03*
X253425Y149547I-492J0D01*
G01*
X273091Y155905D02*
G03*
X273091Y155905I-492J0D01*
G01*
X150787Y231516D02*
G03*
X150787Y231516I-492J0D01*
G01*
X251909Y204921D02*
G03*
X251909Y204921I-492J0D01*
G01*
X220965Y199662D02*
G03*
X220965Y199662I-492J0D01*
G01*
X161437Y174331D02*
G03*
X161437Y174331I-492J0D01*
G01*
X188819Y177224D02*
G03*
X188819Y177224I-492J0D01*
G01*
X285433Y173227D02*
Y170603D01*
X286745Y169291D01*
X288057Y170603D01*
Y173227D01*
X289369Y171259D02*
X291993D01*
X297525Y172689D02*
X296869Y173345D01*
X295557D01*
X294902Y172689D01*
Y170065D01*
X295557Y169409D01*
X296869D01*
X297525Y170065D01*
Y171377D01*
X296214D01*
X298837Y169409D02*
Y173345D01*
X301461Y169409D01*
Y173345D01*
X302773D02*
Y169409D01*
X304741D01*
X305397Y170065D01*
Y172689D01*
X304741Y173345D01*
X302773D01*
X106299Y172951D02*
Y170328D01*
X107611Y169016D01*
X108923Y170328D01*
Y172951D01*
X110235Y170984D02*
X112859D01*
X111547Y172295D02*
Y169672D01*
X117781Y172295D02*
X117125Y172951D01*
X115813D01*
X115157Y172295D01*
Y169672D01*
X115813Y169016D01*
X117125D01*
X117781Y169672D01*
Y170984D01*
X116469D01*
X119093Y169016D02*
Y172951D01*
X121717Y169016D01*
Y172951D01*
X123029D02*
Y169016D01*
X124997D01*
X125653Y169672D01*
Y172295D01*
X124997Y172951D01*
X123029D01*
D11*
X237262Y163386D02*
G03*
X237323Y163447I0J61D01*
G01*
Y178543D02*
G03*
X237262Y178604I-61J0D01*
G01*
X237323Y163447D02*
Y178543D01*
X234252Y178604D02*
X237262D01*
X234252Y147638D02*
Y178604D01*
X256890Y210630D02*
Y226378D01*
Y222441D02*
Y226378D01*
X241732Y222441D02*
X256890D01*
X236841Y227332D02*
X241732Y222441D01*
X224410Y227332D02*
X236841D01*
X222441Y225364D02*
X224410Y227332D01*
X222441Y214567D02*
Y225364D01*
X144685Y200000D02*
Y224410D01*
X159449D01*
X164370Y229331D01*
X179134D01*
X180118Y228346D01*
Y214567D02*
Y228346D01*
D12*
X278150Y183465D02*
G03*
X278150Y183465I-12402J0D01*
G01*
X269488Y149213D02*
Y153150D01*
X263583Y149213D02*
Y153150D01*
X254075Y155512D02*
X259390D01*
X254075Y152362D02*
X259390D01*
Y155512D01*
X254075Y152362D02*
Y155512D01*
X305157Y143405D02*
Y168405D01*
X275157Y143405D02*
X305157D01*
X275157D02*
Y168405D01*
X305157D01*
X154921Y205335D02*
X170276D01*
X154921Y231713D02*
X170276D01*
Y205335D02*
Y231713D01*
X154921Y205335D02*
Y231713D01*
X134252Y228169D02*
X138189D01*
X134252Y234075D02*
X138189D01*
X137992Y204350D02*
X138386D01*
X137992Y201201D02*
X138386D01*
X139173Y210059D02*
X139567D01*
X139173Y207303D02*
X139567D01*
X139173Y214764D02*
X139567D01*
X139173Y212008D02*
X139567D01*
X139173Y219902D02*
X139567D01*
X139173Y217146D02*
X139567D01*
X139173Y225413D02*
X139567D01*
X139173Y222657D02*
X139567D01*
X115098Y174508D02*
Y235492D01*
X124902Y174508D02*
Y235492D01*
X115098D02*
X124902D01*
X115098Y174508D02*
X124902D01*
X105098D02*
Y235492D01*
X114902Y174508D02*
Y235492D01*
X105098D02*
X114902D01*
X105098Y174508D02*
X114902D01*
X295098D02*
Y235492D01*
X304902Y174508D02*
Y235492D01*
X295098D02*
X304902D01*
X295098Y174508D02*
X304902D01*
X285098D02*
Y235492D01*
X294902Y174508D02*
Y235492D01*
X285098D02*
X294902D01*
X285098Y174508D02*
X294902D01*
X264016Y234449D02*
X267953D01*
X264016Y228543D02*
X267953D01*
X263425Y211811D02*
X263819D01*
X263425Y214961D02*
X263819D01*
X262244Y217913D02*
X262638D01*
X262244Y220669D02*
X262638D01*
X262244Y223031D02*
X262638D01*
X262244Y225787D02*
X262638D01*
X279961Y215354D02*
Y215748D01*
X277205Y215354D02*
Y215748D01*
X272244Y215354D02*
Y215748D01*
X275000Y215354D02*
Y215748D01*
X245512Y204921D02*
Y231299D01*
X234488Y204921D02*
Y231299D01*
Y204921D02*
X245512D01*
X234488Y231299D02*
X245512D01*
X222244Y164370D02*
X226575D01*
X222244Y170276D02*
X226575D01*
X222244Y172699D02*
X226575D01*
X222244Y178604D02*
X226575D01*
X222244Y156496D02*
X226575D01*
X222244Y162402D02*
X226575D01*
X222244Y148622D02*
X226575D01*
X222244Y154527D02*
X226575D01*
X196260Y153268D02*
Y157598D01*
X190354Y153268D02*
Y157598D01*
X204921Y161831D02*
X205315D01*
X204921Y156910D02*
X205315D01*
X205709Y170276D02*
X206102D01*
X205709Y173031D02*
X206102D01*
X173425Y202185D02*
X173819D01*
X173425Y197658D02*
X173819D01*
X175591Y185551D02*
Y185945D01*
X178347Y185551D02*
Y185945D01*
X173031Y185551D02*
Y185945D01*
X170276Y185551D02*
Y185945D01*
X167913Y185551D02*
Y185945D01*
X165157Y185551D02*
Y185945D01*
X174606Y194606D02*
X175000D01*
X174606Y191850D02*
X175000D01*
X187736Y179783D02*
X188858D01*
X187736D02*
Y180905D01*
Y195000D02*
Y196122D01*
X188858D01*
X202953D02*
X204075D01*
Y195000D02*
Y196122D01*
X202953Y179783D02*
X204075D01*
Y180905D01*
X207283Y206417D02*
Y206811D01*
X204528Y206417D02*
Y206811D01*
X199409Y206417D02*
Y206811D01*
X202165Y206417D02*
Y206811D01*
X194291Y206496D02*
Y206890D01*
X197047Y206496D02*
Y206890D01*
X191929Y206417D02*
Y206811D01*
X189173Y206417D02*
Y206811D01*
X205844Y219220D02*
Y219614D01*
X208600Y219220D02*
Y219614D01*
X190945Y219094D02*
Y219488D01*
X193701Y219094D02*
Y219488D01*
X148622Y190276D02*
X152953D01*
X148622Y184370D02*
X152953D01*
X148622Y181614D02*
X152953D01*
X148622Y175709D02*
X152953D01*
X148622Y172559D02*
X152953D01*
X148622Y166654D02*
X152953D01*
X148622Y163898D02*
X152953D01*
X148622Y157992D02*
X152953D01*
X197047Y169016D02*
Y169409D01*
X199803Y169016D02*
Y169409D01*
D13*
X200827Y213413D02*
X203976D01*
X195803D02*
X198952D01*
D14*
X265749Y165157D02*
Y169093D01*
X263781Y167125D02*
X267717D01*
X271261Y145669D02*
Y144095D01*
X272441D01*
Y144882D01*
Y144095D01*
X273622D01*
X271654Y146456D02*
X271261Y146850D01*
Y147637D01*
X271654Y148030D01*
X272048D01*
X272441Y147637D01*
Y147243D01*
Y147637D01*
X272835Y148030D01*
X273229D01*
X273622Y147637D01*
Y146850D01*
X273229Y146456D01*
X237796Y144488D02*
X240158D01*
Y145669D01*
X239764Y146063D01*
X238190D01*
X237796Y145669D01*
Y144488D01*
X240158Y148030D02*
X237796D01*
X238977Y146850D01*
Y148424D01*
X275197Y169291D02*
Y171653D01*
X276378D01*
X276771Y171259D01*
Y170472D01*
X276378Y170079D01*
X275197D01*
X279133Y171653D02*
X277558D01*
Y170472D01*
X278345Y170866D01*
X278739D01*
X279133Y170472D01*
Y169685D01*
X278739Y169291D01*
X277952D01*
X277558Y169685D01*
X253544Y231713D02*
X255906D01*
Y233287D01*
X253544Y234074D02*
Y235648D01*
X253938D01*
X255512Y234074D01*
X255906D01*
X121503Y216436D02*
X123865D01*
Y218010D01*
X121503Y220372D02*
X121897Y219584D01*
X122684Y218797D01*
X123471D01*
X123865Y219191D01*
Y219978D01*
X123471Y220372D01*
X123078D01*
X122684Y219978D01*
Y218797D01*
X266339Y201772D02*
X268701D01*
Y203346D01*
X266339Y205707D02*
Y204133D01*
X267520D01*
X267126Y204920D01*
Y205314D01*
X267520Y205707D01*
X268307D01*
X268701Y205314D01*
Y204527D01*
X268307Y204133D01*
X140355Y190945D02*
X142717D01*
Y192519D01*
Y194487D02*
X140355D01*
X141536Y193306D01*
Y194881D01*
X257087Y164192D02*
Y161831D01*
X258661D01*
X259448Y163799D02*
X259842Y164192D01*
X260629D01*
X261022Y163799D01*
Y163405D01*
X260629Y163011D01*
X260235D01*
X260629D01*
X261022Y162618D01*
Y162224D01*
X260629Y161831D01*
X259842D01*
X259448Y162224D01*
X255906Y143405D02*
X258268D01*
Y144586D01*
X257874Y144980D01*
X256300D01*
X255906Y144586D01*
Y143405D01*
X256300Y145767D02*
X255906Y146160D01*
Y146948D01*
X256300Y147341D01*
X256693D01*
X257087Y146948D01*
Y146554D01*
Y146948D01*
X257481Y147341D01*
X257874D01*
X258268Y146948D01*
Y146160D01*
X257874Y145767D01*
X271653Y180314D02*
X271259Y180708D01*
X270472D01*
X270079Y180314D01*
Y178740D01*
X270472Y178347D01*
X271259D01*
X271653Y178740D01*
X272440Y178347D02*
X273227D01*
X272834D01*
Y180708D01*
X272440Y180314D01*
X275982Y180708D02*
X274408D01*
Y179527D01*
X275195Y179921D01*
X275589D01*
X275982Y179527D01*
Y178740D01*
X275589Y178347D01*
X274802D01*
X274408Y178740D01*
X251417Y203149D02*
Y201181D01*
X251811Y200787D01*
X252598D01*
X252992Y201181D01*
Y203149D01*
X253779Y202755D02*
X254172Y203149D01*
X254960D01*
X255353Y202755D01*
Y202362D01*
X254960Y201968D01*
X254566D01*
X254960D01*
X255353Y201574D01*
Y201181D01*
X254960Y200787D01*
X254172D01*
X253779Y201181D01*
X151575Y235629D02*
Y233661D01*
X151968Y233268D01*
X152755D01*
X153149Y233661D01*
Y235629D01*
X155510Y233268D02*
X153936D01*
X155510Y234842D01*
Y235236D01*
X155117Y235629D01*
X154330D01*
X153936Y235236D01*
X187008Y200019D02*
Y198051D01*
X187401Y197658D01*
X188189D01*
X188582Y198051D01*
Y200019D01*
X189369Y197658D02*
X190156D01*
X189763D01*
Y200019D01*
X189369Y199625D01*
X279528Y204193D02*
X277166D01*
Y205374D01*
X277560Y205767D01*
X278347D01*
X278740Y205374D01*
Y204193D01*
Y204980D02*
X279528Y205767D01*
Y206554D02*
Y207342D01*
Y206948D01*
X277166D01*
X277560Y206554D01*
X279528Y210097D02*
Y208522D01*
X277953Y210097D01*
X277560D01*
X277166Y209703D01*
Y208916D01*
X277560Y208522D01*
X274606Y204193D02*
X272245D01*
Y205374D01*
X272638Y205767D01*
X273426D01*
X273819Y205374D01*
Y204193D01*
Y204980D02*
X274606Y205767D01*
Y206554D02*
Y207342D01*
Y206948D01*
X272245D01*
X272638Y206554D01*
X274606Y208522D02*
Y209309D01*
Y208916D01*
X272245D01*
X272638Y208522D01*
X208600Y225078D02*
X206239D01*
Y226258D01*
X206632Y226652D01*
X207419D01*
X207813Y226258D01*
Y225078D01*
Y225865D02*
X208600Y226652D01*
Y227439D02*
Y228226D01*
Y227833D01*
X206239D01*
X206632Y227439D01*
Y229407D02*
X206239Y229800D01*
Y230588D01*
X206632Y230981D01*
X208207D01*
X208600Y230588D01*
Y229800D01*
X208207Y229407D01*
X206632D01*
X181953Y222668D02*
Y225029D01*
X183134D01*
X183527Y224635D01*
Y223848D01*
X183134Y223455D01*
X181953D01*
X182740D02*
X183527Y222668D01*
X184314Y223061D02*
X184708Y222668D01*
X185495D01*
X185889Y223061D01*
Y224635D01*
X185495Y225029D01*
X184708D01*
X184314Y224635D01*
Y224242D01*
X184708Y223848D01*
X185889D01*
X181850Y226555D02*
Y228917D01*
X183031D01*
X183425Y228523D01*
Y227736D01*
X183031Y227342D01*
X181850D01*
X182638D02*
X183425Y226555D01*
X184212Y228523D02*
X184605Y228917D01*
X185393D01*
X185786Y228523D01*
Y228129D01*
X185393Y227736D01*
X185786Y227342D01*
Y226949D01*
X185393Y226555D01*
X184605D01*
X184212Y226949D01*
Y227342D01*
X184605Y227736D01*
X184212Y228129D01*
Y228523D01*
X184605Y227736D02*
X185393D01*
X192953Y225078D02*
X190591D01*
Y226258D01*
X190985Y226652D01*
X191772D01*
X192166Y226258D01*
Y225078D01*
Y225865D02*
X192953Y226652D01*
X190591Y229013D02*
X190985Y228226D01*
X191772Y227439D01*
X192559D01*
X192953Y227833D01*
Y228620D01*
X192559Y229013D01*
X192166D01*
X191772Y228620D01*
Y227439D01*
X203976Y175197D02*
Y177558D01*
X205157D01*
X205551Y177165D01*
Y176378D01*
X205157Y175984D01*
X203976D01*
X204764D02*
X205551Y175197D01*
X206338Y177558D02*
X207912D01*
Y177165D01*
X206338Y175590D01*
Y175197D01*
X184055Y205709D02*
X181694D01*
Y206889D01*
X182087Y207283D01*
X182874D01*
X183268Y206889D01*
Y205709D01*
Y206496D02*
X184055Y207283D01*
X182087Y208070D02*
X181694Y208464D01*
Y209251D01*
X182087Y209644D01*
X182481D01*
X182874Y209251D01*
Y208857D01*
Y209251D01*
X183268Y209644D01*
X183662D01*
X184055Y209251D01*
Y208464D01*
X183662Y208070D01*
X162402Y193898D02*
X160040D01*
Y195078D01*
X160434Y195472D01*
X161221D01*
X161614Y195078D01*
Y193898D01*
Y194685D02*
X162402Y195472D01*
Y197833D02*
Y196259D01*
X160827Y197833D01*
X160434D01*
X160040Y197440D01*
Y196653D01*
X160434Y196259D01*
X180118Y205709D02*
X177757D01*
Y206889D01*
X178150Y207283D01*
X178937D01*
X179331Y206889D01*
Y205709D01*
Y206496D02*
X180118Y207283D01*
Y209251D02*
X177757D01*
X178937Y208070D01*
Y209644D01*
X158465Y193898D02*
X156103D01*
Y195078D01*
X156497Y195472D01*
X157284D01*
X157677Y195078D01*
Y193898D01*
Y194685D02*
X158465Y195472D01*
Y196259D02*
Y197046D01*
Y196653D01*
X156103D01*
X156497Y196259D01*
X119095Y155905D02*
Y158267D01*
X120275D01*
X120669Y157873D01*
Y157086D01*
X120275Y156693D01*
X119095D01*
X122637Y155905D02*
Y158267D01*
X121456Y157086D01*
X123030D01*
X104331Y157598D02*
Y159960D01*
X105511D01*
X105905Y159566D01*
Y158779D01*
X105511Y158386D01*
X104331D01*
X106692Y159566D02*
X107086Y159960D01*
X107873D01*
X108266Y159566D01*
Y159173D01*
X107873Y158779D01*
X107479D01*
X107873D01*
X108266Y158386D01*
Y157992D01*
X107873Y157598D01*
X107086D01*
X106692Y157992D01*
X317913Y166339D02*
Y168700D01*
X319094D01*
X319488Y168306D01*
Y167519D01*
X319094Y167126D01*
X317913D01*
X320275Y166339D02*
X321062D01*
X320668D01*
Y168700D01*
X320275Y168306D01*
X318898Y178859D02*
Y181220D01*
X320078D01*
X320472Y180827D01*
Y180040D01*
X320078Y179646D01*
X318898D01*
X322833Y178859D02*
X321259D01*
X322833Y180433D01*
Y180827D01*
X322440Y181220D01*
X321653D01*
X321259Y180827D01*
X249607Y190000D02*
X251969D01*
Y191574D01*
Y193936D02*
Y192361D01*
X250394Y193936D01*
X250001D01*
X249607Y193542D01*
Y192755D01*
X250001Y192361D01*
X166930Y141732D02*
X169291D01*
Y143307D01*
Y144094D02*
Y144881D01*
Y144487D01*
X166930D01*
X167324Y144094D01*
X249606Y234645D02*
X248031D01*
Y233464D01*
X248819D01*
X248031D01*
Y232283D01*
X251967D02*
X250393D01*
X251967Y233858D01*
Y234251D01*
X251574Y234645D01*
X250786D01*
X250393Y234251D01*
X147244Y234645D02*
X145669D01*
Y233464D01*
X146456D01*
X145669D01*
Y232283D01*
X148031D02*
X148818D01*
X148424D01*
Y234645D01*
X148031Y234251D01*
X201379Y225078D02*
X203740D01*
Y226258D01*
X203347Y226652D01*
X201772D01*
X201379Y226258D01*
Y225078D01*
X201772Y229013D02*
X201379Y228620D01*
Y227833D01*
X201772Y227439D01*
X202166D01*
X202559Y227833D01*
Y228620D01*
X202953Y229013D01*
X203347D01*
X203740Y228620D01*
Y227833D01*
X203347Y227439D01*
X201772Y229800D02*
X201379Y230194D01*
Y230981D01*
X201772Y231375D01*
X202166D01*
X202559Y230981D01*
Y230588D01*
Y230981D01*
X202953Y231375D01*
X203347D01*
X203740Y230981D01*
Y230194D01*
X203347Y229800D01*
X196458Y225078D02*
X198819D01*
Y226258D01*
X198425Y226652D01*
X196851D01*
X196458Y226258D01*
Y225078D01*
X196851Y229013D02*
X196458Y228620D01*
Y227833D01*
X196851Y227439D01*
X197245D01*
X197638Y227833D01*
Y228620D01*
X198032Y229013D01*
X198425D01*
X198819Y228620D01*
Y227833D01*
X198425Y227439D01*
X198819Y231375D02*
Y229800D01*
X197245Y231375D01*
X196851D01*
X196458Y230981D01*
Y230194D01*
X196851Y229800D01*
X215158Y201571D02*
Y199209D01*
X216338D01*
X216732Y199603D01*
Y201177D01*
X216338Y201571D01*
X215158D01*
X219093Y199209D02*
X217519D01*
X219093Y200783D01*
Y201177D01*
X218700Y201571D01*
X217913D01*
X217519Y201177D01*
X159449Y179586D02*
Y177224D01*
X160629D01*
X161023Y177618D01*
Y179192D01*
X160629Y179586D01*
X159449D01*
X161810Y177224D02*
X162597D01*
X162204D01*
Y179586D01*
X161810Y179192D01*
X215887Y224635D02*
X215494Y225029D01*
X214706D01*
X214313Y224635D01*
Y223061D01*
X214706Y222668D01*
X215494D01*
X215887Y223061D01*
X216674Y222668D02*
X217462D01*
X217068D01*
Y225029D01*
X216674Y224635D01*
X219823Y222668D02*
Y225029D01*
X218642Y223848D01*
X220217D01*
X215964Y220598D02*
X215570Y220991D01*
X214783D01*
X214389Y220598D01*
Y219023D01*
X214783Y218630D01*
X215570D01*
X215964Y219023D01*
X216751Y218630D02*
X217538D01*
X217144D01*
Y220991D01*
X216751Y220598D01*
X218719D02*
X219112Y220991D01*
X219899D01*
X220293Y220598D01*
Y220204D01*
X219899Y219811D01*
X219506D01*
X219899D01*
X220293Y219417D01*
Y219023D01*
X219899Y218630D01*
X219112D01*
X218719Y219023D01*
X216141Y216535D02*
X215748Y216928D01*
X214961D01*
X214567Y216535D01*
Y214961D01*
X214961Y214567D01*
X215748D01*
X216141Y214961D01*
X216928Y214567D02*
X217716D01*
X217322D01*
Y216928D01*
X216928Y216535D01*
X220470Y214567D02*
X218896D01*
X220470Y216141D01*
Y216535D01*
X220077Y216928D01*
X219290D01*
X218896Y216535D01*
X183120Y232283D02*
X182726Y232676D01*
X181939D01*
X181545Y232283D01*
Y230709D01*
X181939Y230315D01*
X182726D01*
X183120Y230709D01*
X183907Y230315D02*
X184694D01*
X184300D01*
Y232676D01*
X183907Y232283D01*
X185875Y230315D02*
X186662D01*
X186268D01*
Y232676D01*
X185875Y232283D01*
X183425Y220598D02*
X183031Y220991D01*
X182244D01*
X181850Y220598D01*
Y219023D01*
X182244Y218630D01*
X183031D01*
X183425Y219023D01*
X185393Y218630D02*
Y220991D01*
X184212Y219811D01*
X185786D01*
X183433Y216435D02*
X183040Y216828D01*
X182253D01*
X181859Y216435D01*
Y214860D01*
X182253Y214467D01*
X183040D01*
X183433Y214860D01*
X185795Y216828D02*
X184221D01*
Y215648D01*
X185008Y216041D01*
X185401D01*
X185795Y215648D01*
Y214860D01*
X185401Y214467D01*
X184614D01*
X184221Y214860D01*
X160039Y204153D02*
X159645Y204546D01*
X158858D01*
X158465Y204153D01*
Y202579D01*
X158858Y202185D01*
X159645D01*
X160039Y202579D01*
X160826Y204546D02*
X162400D01*
Y204153D01*
X160826Y202579D01*
Y202185D01*
X160039Y200787D02*
X159645Y201180D01*
X158858D01*
X158465Y200787D01*
Y199213D01*
X158858Y198819D01*
X159645D01*
X160039Y199213D01*
X162400Y201180D02*
X161613Y200787D01*
X160826Y200000D01*
Y199213D01*
X161220Y198819D01*
X162007D01*
X162400Y199213D01*
Y199606D01*
X162007Y200000D01*
X160826D01*
X202107Y165944D02*
X201713Y165551D01*
Y164764D01*
X202107Y164370D01*
X203681D01*
X204075Y164764D01*
Y165551D01*
X203681Y165944D01*
X202107Y166732D02*
X201713Y167125D01*
Y167912D01*
X202107Y168306D01*
X202501D01*
X202894Y167912D01*
Y167519D01*
Y167912D01*
X203288Y168306D01*
X203681D01*
X204075Y167912D01*
Y167125D01*
X203681Y166732D01*
X200527Y154527D02*
X200133Y154920D01*
X199346D01*
X198952Y154527D01*
Y152953D01*
X199346Y152559D01*
X200133D01*
X200527Y152953D01*
X202888Y152559D02*
X201314D01*
X202888Y154133D01*
Y154527D01*
X202495Y154920D01*
X201707D01*
X201314Y154527D01*
X241732Y173228D02*
X241338Y173621D01*
X240551D01*
X240158Y173228D01*
Y171653D01*
X240551Y171260D01*
X241338D01*
X241732Y171653D01*
X244093Y173621D02*
X242519D01*
Y172441D01*
X243306Y172834D01*
X243700D01*
X244093Y172441D01*
Y171653D01*
X243700Y171260D01*
X242913D01*
X242519Y171653D01*
X246455Y173621D02*
Y171260D01*
X245274D01*
X244880Y171653D01*
Y172441D01*
X245274Y172834D01*
X246455D01*
X241732Y169291D02*
X241338Y169684D01*
X240551D01*
X240158Y169291D01*
Y167716D01*
X240551Y167323D01*
X241338D01*
X241732Y167716D01*
X244093Y169684D02*
X242519D01*
Y168503D01*
X243306Y168897D01*
X243700D01*
X244093Y168503D01*
Y167716D01*
X243700Y167323D01*
X242913D01*
X242519Y167716D01*
X246455Y168897D02*
X245274D01*
X244880Y168503D01*
Y167716D01*
X245274Y167323D01*
X246455D01*
X241732Y165669D02*
X241338Y166062D01*
X240551D01*
X240158Y165669D01*
Y164094D01*
X240551Y163701D01*
X241338D01*
X241732Y164094D01*
X244093Y166062D02*
X242519D01*
Y164882D01*
X243306Y165275D01*
X243700D01*
X244093Y164882D01*
Y164094D01*
X243700Y163701D01*
X242913D01*
X242519Y164094D01*
X244880Y166062D02*
Y163701D01*
X246061D01*
X246455Y164094D01*
Y164488D01*
Y164882D01*
X246061Y165275D01*
X244880D01*
X241732Y177619D02*
X241338Y178013D01*
X240551D01*
X240158Y177619D01*
Y176045D01*
X240551Y175652D01*
X241338D01*
X241732Y176045D01*
X244093Y178013D02*
X242519D01*
Y176832D01*
X243306Y177226D01*
X243700D01*
X244093Y176832D01*
Y176045D01*
X243700Y175652D01*
X242913D01*
X242519Y176045D01*
X245274Y177226D02*
X246061D01*
X246455Y176832D01*
Y175652D01*
X245274D01*
X244880Y176045D01*
X245274Y176439D01*
X246455D01*
X191930Y145275D02*
X191536Y144881D01*
Y144094D01*
X191930Y143701D01*
X193504D01*
X193898Y144094D01*
Y144881D01*
X193504Y145275D01*
X193898Y146062D02*
Y146849D01*
Y146456D01*
X191536D01*
X191930Y146062D01*
X185768Y207283D02*
X185375Y206889D01*
Y206102D01*
X185768Y205709D01*
X187343D01*
X187736Y206102D01*
Y206889D01*
X187343Y207283D01*
X187736Y208070D02*
Y208857D01*
Y208464D01*
X185375D01*
X185768Y208070D01*
Y210038D02*
X185375Y210432D01*
Y211219D01*
X185768Y211612D01*
X187343D01*
X187736Y211219D01*
Y210432D01*
X187343Y210038D01*
X185768D01*
X174213Y207283D02*
X173820Y206889D01*
Y206102D01*
X174213Y205709D01*
X175787D01*
X176181Y206102D01*
Y206889D01*
X175787Y207283D01*
X174213Y208070D02*
X173820Y208464D01*
Y209251D01*
X174213Y209644D01*
X174607D01*
X175000Y209251D01*
X175394Y209644D01*
X175787D01*
X176181Y209251D01*
Y208464D01*
X175787Y208070D01*
X175394D01*
X175000Y208464D01*
X174607Y208070D01*
X174213D01*
X175000Y208464D02*
Y209251D01*
X152953Y195472D02*
X152560Y195078D01*
Y194291D01*
X152953Y193898D01*
X154528D01*
X154921Y194291D01*
Y195078D01*
X154528Y195472D01*
Y196259D02*
X154921Y196653D01*
Y197440D01*
X154528Y197833D01*
X152953D01*
X152560Y197440D01*
Y196653D01*
X152953Y196259D01*
X153347D01*
X153741Y196653D01*
Y197833D01*
X137401Y159960D02*
X137007Y160354D01*
X136220D01*
X135827Y159960D01*
Y158386D01*
X136220Y157992D01*
X137007D01*
X137401Y158386D01*
X139369Y157992D02*
Y160354D01*
X138188Y159173D01*
X139762D01*
X142124Y160354D02*
Y157992D01*
X140943D01*
X140550Y158386D01*
Y159173D01*
X140943Y159566D01*
X142124D01*
X137401Y168621D02*
X137007Y169015D01*
X136220D01*
X135827Y168621D01*
Y167047D01*
X136220Y166654D01*
X137007D01*
X137401Y167047D01*
X139369Y166654D02*
Y169015D01*
X138188Y167834D01*
X139762D01*
X142124Y168228D02*
X140943D01*
X140550Y167834D01*
Y167047D01*
X140943Y166654D01*
X142124D01*
X137401Y177676D02*
X137007Y178070D01*
X136220D01*
X135827Y177676D01*
Y176102D01*
X136220Y175709D01*
X137007D01*
X137401Y176102D01*
X139369Y175709D02*
Y178070D01*
X138188Y176889D01*
X139762D01*
X140550Y178070D02*
Y175709D01*
X141730D01*
X142124Y176102D01*
Y176496D01*
Y176889D01*
X141730Y177283D01*
X140550D01*
X137401Y186023D02*
X137007Y186417D01*
X136220D01*
X135827Y186023D01*
Y184449D01*
X136220Y184055D01*
X137007D01*
X137401Y184449D01*
X139369Y184055D02*
Y186417D01*
X138188Y185236D01*
X139762D01*
X140943Y185629D02*
X141730D01*
X142124Y185236D01*
Y184055D01*
X140943D01*
X140550Y184449D01*
X140943Y184842D01*
X142124D01*
M02*
