G04*
G04 #@! TF.GenerationSoftware,Altium Limited,Altium Designer,19.0.15 (446)*
G04*
G04 Layer_Physical_Order=1*
G04 Layer_Color=255*
%FSLAX25Y25*%
%MOIN*%
G70*
G01*
G75*
%ADD12C,0.00787*%
%ADD14C,0.00591*%
%ADD15R,0.07087X0.03937*%
%ADD16R,0.10000X0.10512*%
%ADD17R,0.05000X0.03000*%
%ADD18R,0.03268X0.02480*%
G04:AMPARAMS|DCode=19|XSize=125.98mil|YSize=68.9mil|CornerRadius=2.07mil|HoleSize=0mil|Usage=FLASHONLY|Rotation=90.000|XOffset=0mil|YOffset=0mil|HoleType=Round|Shape=RoundedRectangle|*
%AMROUNDEDRECTD19*
21,1,0.12598,0.06476,0,0,90.0*
21,1,0.12185,0.06890,0,0,90.0*
1,1,0.00413,0.03238,0.06093*
1,1,0.00413,0.03238,-0.06093*
1,1,0.00413,-0.03238,-0.06093*
1,1,0.00413,-0.03238,0.06093*
%
%ADD19ROUNDEDRECTD19*%
G04:AMPARAMS|DCode=20|XSize=35.43mil|YSize=68.9mil|CornerRadius=1.95mil|HoleSize=0mil|Usage=FLASHONLY|Rotation=90.000|XOffset=0mil|YOffset=0mil|HoleType=Round|Shape=RoundedRectangle|*
%AMROUNDEDRECTD20*
21,1,0.03543,0.06500,0,0,90.0*
21,1,0.03154,0.06890,0,0,90.0*
1,1,0.00390,0.03250,0.01577*
1,1,0.00390,0.03250,-0.01577*
1,1,0.00390,-0.03250,-0.01577*
1,1,0.00390,-0.03250,0.01577*
%
%ADD20ROUNDEDRECTD20*%
%ADD21R,0.03937X0.07087*%
%ADD22R,0.03543X0.03937*%
%ADD23R,0.02756X0.03543*%
%ADD24R,0.03543X0.02756*%
%ADD25R,0.09449X0.03937*%
%ADD26R,0.09449X0.12992*%
%ADD27R,0.16535X0.05512*%
%ADD28R,0.03740X0.06693*%
%ADD29R,0.06693X0.03740*%
%ADD30R,0.04528X0.05709*%
%ADD31R,0.03740X0.05315*%
%ADD32R,0.10512X0.10000*%
%ADD33R,0.03000X0.05000*%
%ADD34O,0.01102X0.03347*%
%ADD35O,0.03347X0.01102*%
%ADD36R,0.09646X0.09646*%
%ADD37R,0.03150X0.02362*%
%ADD38R,0.05472X0.03898*%
%ADD39R,0.03898X0.05472*%
%ADD71C,0.03937*%
%ADD72C,0.01181*%
%ADD73R,0.06102X0.06102*%
%ADD74C,0.06102*%
%ADD75C,0.06299*%
%ADD76R,0.06299X0.06299*%
%ADD77R,0.05118X0.05118*%
%ADD78C,0.05118*%
%ADD79C,0.02362*%
G36*
X268621Y233936D02*
X268937Y233725D01*
Y232648D01*
X268915Y232480D01*
X268937Y232313D01*
Y228363D01*
X268701Y228169D01*
X263435D01*
Y235217D01*
X267340D01*
X268621Y233936D01*
D02*
G37*
G36*
X303626Y238001D02*
X304515Y237633D01*
X305315Y237098D01*
X305996Y236418D01*
X306530Y235617D01*
X306899Y234728D01*
X307087Y233784D01*
Y233303D01*
Y141732D01*
Y141341D01*
X306787Y140617D01*
X306233Y140064D01*
X305510Y139764D01*
X271050D01*
Y151378D01*
X270863Y151830D01*
X270411Y152017D01*
X253854D01*
X253663Y152479D01*
X254364Y153181D01*
X254775Y153716D01*
X255032Y154338D01*
X255120Y155006D01*
Y164266D01*
X266249Y175394D01*
X268898D01*
Y181693D01*
X262598D01*
Y179044D01*
X250714Y167160D01*
X250304Y166625D01*
X250046Y166003D01*
X249958Y165335D01*
Y156075D01*
X248509Y154626D01*
X240978D01*
Y152017D01*
X236221D01*
X236149Y151988D01*
X235649Y152322D01*
Y158640D01*
X255828Y178818D01*
X256045Y179144D01*
X256122Y179528D01*
Y193856D01*
X260691Y198425D01*
X265138D01*
Y202894D01*
X270827D01*
X271211Y202971D01*
X271536Y203188D01*
X274332Y205983D01*
X274549Y206309D01*
X274626Y206693D01*
Y210827D01*
X275984D01*
Y210827D01*
X276220Y210827D01*
Y210827D01*
X280945D01*
Y214764D01*
X276220D01*
Y214764D01*
X275984Y214764D01*
Y214764D01*
X271260D01*
Y210827D01*
X272619D01*
Y207109D01*
X270411Y204901D01*
X265138D01*
Y209449D01*
X263435D01*
X263435Y221075D01*
X263343Y221296D01*
X263297Y221407D01*
X263435Y221738D01*
Y226162D01*
X268285D01*
X271634Y222813D01*
Y220276D01*
X271260D01*
Y216339D01*
X275984D01*
Y220276D01*
X273641D01*
Y223228D01*
X273565Y223612D01*
X273347Y223938D01*
X270385Y226900D01*
X270576Y227362D01*
X274055D01*
Y229899D01*
X274951D01*
Y224410D01*
X275139Y223957D01*
X275590Y223770D01*
X279544D01*
X281841Y221473D01*
Y176869D01*
X282028Y176417D01*
X284567Y173879D01*
X285019Y173691D01*
X296260D01*
X296712Y173879D01*
X296899Y174331D01*
Y175850D01*
X299500D01*
Y180000D01*
Y184150D01*
X296899D01*
Y186519D01*
X297399Y186765D01*
X297907Y186375D01*
X298917Y185957D01*
X299500Y185880D01*
Y190000D01*
Y194120D01*
X298917Y194043D01*
X297907Y193625D01*
X297399Y193235D01*
X296899Y193481D01*
Y196519D01*
X297399Y196765D01*
X297907Y196375D01*
X298917Y195957D01*
X299500Y195880D01*
Y200000D01*
Y204120D01*
X298917Y204043D01*
X297907Y203625D01*
X297399Y203235D01*
X296899Y203481D01*
Y206519D01*
X297399Y206765D01*
X297907Y206375D01*
X298917Y205957D01*
X299500Y205880D01*
Y210000D01*
Y214120D01*
X298917Y214043D01*
X297907Y213625D01*
X297399Y213235D01*
X296899Y213481D01*
Y216519D01*
X297399Y216765D01*
X297907Y216375D01*
X298917Y215957D01*
X299500Y215880D01*
Y220000D01*
Y224120D01*
X298917Y224043D01*
X297907Y223625D01*
X297399Y223235D01*
X296899Y223481D01*
Y226519D01*
X297399Y226765D01*
X297907Y226375D01*
X298917Y225957D01*
X299500Y225880D01*
Y230000D01*
Y234120D01*
X298917Y234043D01*
X297907Y233625D01*
X297399Y233235D01*
X296899Y233481D01*
Y236221D01*
X296712Y236672D01*
X296260Y236860D01*
X282480D01*
X282028Y236672D01*
X281841Y236221D01*
Y235039D01*
X278900D01*
X278583Y235081D01*
X278433Y235061D01*
X274055D01*
Y235630D01*
X270018D01*
X269921Y235649D01*
X269746D01*
X268465Y236930D01*
X268140Y237148D01*
X267756Y237224D01*
X203741D01*
X203357Y237148D01*
X203031Y236930D01*
X199503Y233402D01*
X195975Y236930D01*
X195650Y237148D01*
X195266Y237224D01*
X134232D01*
X133848Y237148D01*
X133523Y236930D01*
X131849Y235256D01*
X128150D01*
Y226988D01*
X129311D01*
Y226398D01*
X126988D01*
Y221612D01*
X126574Y221112D01*
X125639D01*
Y235236D01*
X125452Y235688D01*
X125000Y235875D01*
X105315D01*
X104863Y235688D01*
X104676Y235236D01*
Y174468D01*
X104863Y174016D01*
X105315Y173829D01*
X114764D01*
X115216Y174016D01*
X115610Y174410D01*
X115797Y174862D01*
Y175373D01*
X116297Y175850D01*
X119500D01*
Y180000D01*
Y184150D01*
X116297D01*
X115850Y184150D01*
X115797Y184627D01*
Y187998D01*
X116297Y188097D01*
X116375Y187907D01*
X117041Y187040D01*
X117907Y186375D01*
X118917Y185957D01*
X119500Y185880D01*
Y190000D01*
Y194120D01*
X118917Y194043D01*
X117907Y193625D01*
X117041Y192959D01*
X116375Y192093D01*
X116297Y191903D01*
X115797Y192002D01*
X115797Y197998D01*
X116297Y198097D01*
X116375Y197907D01*
X117041Y197040D01*
X117907Y196375D01*
X118917Y195957D01*
X119500Y195880D01*
Y200000D01*
Y204120D01*
X118917Y204043D01*
X117907Y203625D01*
X117041Y202959D01*
X116375Y202093D01*
X116297Y201903D01*
X115797Y202002D01*
Y207998D01*
X116297Y208097D01*
X116375Y207907D01*
X117041Y207041D01*
X117907Y206375D01*
X118917Y205957D01*
X119500Y205880D01*
Y210000D01*
X120000D01*
Y210500D01*
X124120D01*
X124107Y210599D01*
X124436Y210975D01*
X130315D01*
X130767Y211162D01*
X130954Y211614D01*
X130954Y215374D01*
X133642D01*
Y220453D01*
X131097D01*
X130862Y220887D01*
X131078Y221319D01*
X133642D01*
Y226398D01*
X131318D01*
Y226988D01*
X133268D01*
Y233837D01*
X134648Y235217D01*
X139173D01*
Y234369D01*
X139125Y234252D01*
Y218248D01*
X138625Y217981D01*
X138583Y218009D01*
Y219805D01*
X138602Y219902D01*
X138583Y219999D01*
Y220886D01*
X137695D01*
X137598Y220905D01*
X137502Y220886D01*
X134646D01*
Y216161D01*
X137163D01*
X139271Y214054D01*
X139596Y213837D01*
X139980Y213760D01*
X140157D01*
Y211722D01*
X138779D01*
X138328Y211535D01*
X138140Y211083D01*
Y200591D01*
X138328Y200139D01*
X138341Y200133D01*
X138459Y199543D01*
X137460Y198544D01*
X137242Y198219D01*
X137205Y198031D01*
X132500D01*
Y192953D01*
X139154D01*
Y196950D01*
X139173Y197047D01*
Y197419D01*
X140670Y198916D01*
X140888Y199242D01*
X140964Y199626D01*
Y199951D01*
X153937D01*
X154389Y200139D01*
X154576Y200591D01*
Y211699D01*
X154528Y211817D01*
Y211944D01*
X154715Y212459D01*
X155040Y212676D01*
X156341Y213977D01*
X156841Y213770D01*
Y203625D01*
X157028Y203173D01*
X157480Y202986D01*
X174311D01*
Y196673D01*
X178151D01*
X178248Y196654D01*
X178345Y196673D01*
X179232D01*
Y197018D01*
X186645D01*
X189509Y194154D01*
X189961Y193967D01*
X190038D01*
X190161Y193783D01*
X190539Y193531D01*
X190984Y193442D01*
X191430Y193531D01*
X191614Y193654D01*
X191969Y193743D01*
X192323Y193654D01*
X192507Y193531D01*
X192953Y193442D01*
X193398Y193531D01*
X193776Y193783D01*
X194098D01*
X194476Y193531D01*
X194921Y193442D01*
X195367Y193531D01*
X195551Y193654D01*
X195905Y193743D01*
X196260Y193654D01*
X196444Y193531D01*
X196890Y193442D01*
X197335Y193531D01*
X197342Y193535D01*
X197373Y193554D01*
X197868Y193642D01*
X197975Y193598D01*
X198117Y193498D01*
X198136Y193482D01*
X198231Y193492D01*
X198320Y193455D01*
X198793D01*
X198858Y193442D01*
X198924Y193455D01*
X200761D01*
X200827Y193442D01*
X200892Y193455D01*
X201019D01*
X201411Y192955D01*
X201395Y192874D01*
X201484Y192429D01*
X201607Y192244D01*
X201696Y191890D01*
X201607Y191536D01*
X201484Y191351D01*
X201395Y190905D01*
X201484Y190460D01*
X201736Y190082D01*
Y189760D01*
X201484Y189383D01*
X201395Y188937D01*
X201484Y188491D01*
X201607Y188307D01*
X201696Y187953D01*
X201607Y187599D01*
X201484Y187414D01*
X201395Y186969D01*
X201484Y186523D01*
X201736Y186145D01*
Y185823D01*
X201484Y185445D01*
X201395Y185000D01*
X201484Y184555D01*
X201607Y184370D01*
X201696Y184016D01*
X201607Y183662D01*
X201484Y183477D01*
X201395Y183031D01*
X201109Y182683D01*
X198031D01*
X197580Y182496D01*
X197557Y182442D01*
X197335Y182375D01*
X196890Y182463D01*
X196444Y182375D01*
X196067Y182122D01*
X195814Y181745D01*
X195726Y181299D01*
Y180379D01*
X195686Y180177D01*
X195725Y179979D01*
Y177480D01*
X195725Y177480D01*
X195817Y177020D01*
X195866Y176945D01*
X195831Y176772D01*
X195969Y176080D01*
X196361Y175494D01*
X196434Y175446D01*
Y173937D01*
X196063D01*
Y170000D01*
X200787D01*
X201181Y169743D01*
Y169291D01*
X204672D01*
Y169291D01*
X204724D01*
Y156299D01*
X204672D01*
X204610Y156150D01*
X204527Y156068D01*
X204527Y155941D01*
X204479Y155823D01*
Y154675D01*
X166684D01*
X166494Y154596D01*
X165993Y154903D01*
Y168740D01*
X167456D01*
X167734Y168324D01*
X167727Y168307D01*
Y160433D01*
X167914Y159981D01*
X168366Y159794D01*
X188976D01*
X189428Y159981D01*
X189616Y160433D01*
Y176132D01*
X191245D01*
X191697Y176320D01*
X191884Y176772D01*
Y178220D01*
Y178347D01*
X192060Y178610D01*
X192148Y179055D01*
Y181299D01*
X192060Y181745D01*
X191884Y182007D01*
Y182134D01*
Y182539D01*
X191697Y182991D01*
X191245Y183179D01*
X191131D01*
Y183849D01*
X191044Y184059D01*
X190970Y184274D01*
X190952Y184282D01*
X190944Y184301D01*
X190734Y184388D01*
X190530Y184487D01*
X190415Y184995D01*
X190416Y185000D01*
X190328Y185445D01*
X190075Y185823D01*
Y186145D01*
X190328Y186523D01*
X190416Y186969D01*
X190328Y187414D01*
X190204Y187599D01*
X190115Y187953D01*
X190204Y188307D01*
X190328Y188491D01*
X190416Y188937D01*
X190328Y189383D01*
X190075Y189760D01*
Y190082D01*
X190328Y190460D01*
X190416Y190905D01*
X190328Y191351D01*
X190075Y191729D01*
X189698Y191981D01*
X189252Y192070D01*
X187008D01*
X186562Y191981D01*
X186185Y191729D01*
X185932Y191351D01*
X185844Y190905D01*
X185932Y190460D01*
X186012Y190340D01*
X185745Y189840D01*
X182225D01*
X179674Y192391D01*
X179528Y192489D01*
Y195591D01*
X175591D01*
Y190866D01*
X175334Y190472D01*
X174606D01*
Y189407D01*
X174016D01*
Y190472D01*
X169291D01*
Y190472D01*
X168898Y190472D01*
Y190472D01*
X164173D01*
Y186535D01*
X168898D01*
Y186535D01*
X169291Y186535D01*
Y186535D01*
X173505D01*
X173662Y186157D01*
X173671Y186035D01*
X172597Y184961D01*
X169291D01*
Y184961D01*
X168898Y184961D01*
Y184961D01*
X168791Y184961D01*
X164173D01*
Y184006D01*
X163818Y183654D01*
X163238Y183659D01*
X163238Y190945D01*
X163050Y191397D01*
X162598Y191584D01*
X155826D01*
Y191634D01*
X155750Y192018D01*
X155532Y192343D01*
X153859Y194017D01*
X153534Y194234D01*
X153150Y194311D01*
X143307D01*
X142923Y194234D01*
X142597Y194017D01*
X140687Y192106D01*
X137382D01*
X137285Y192087D01*
X132500D01*
Y187008D01*
X139154D01*
Y190099D01*
X141102D01*
X141486Y190175D01*
X141812Y190393D01*
X143723Y192304D01*
X152734D01*
X153511Y191527D01*
X153485Y191397D01*
X153298Y190945D01*
Y145276D01*
X153485Y144824D01*
X153937Y144636D01*
X165354D01*
X165544Y144715D01*
X166044Y144408D01*
Y139764D01*
X140166D01*
X139025Y139991D01*
X137951Y140436D01*
X136984Y141082D01*
X136161Y141905D01*
X135515Y142872D01*
X135070Y143947D01*
X134843Y145088D01*
Y145669D01*
Y162402D01*
X134820Y162863D01*
X134640Y163769D01*
X134286Y164621D01*
X133774Y165389D01*
X133121Y166042D01*
X132353Y166555D01*
X131500Y166908D01*
X130595Y167088D01*
X130133Y167111D01*
X106799D01*
X105848Y167300D01*
X104952Y167671D01*
X104146Y168210D01*
X103461Y168895D01*
X102922Y169701D01*
X102551Y170597D01*
X102362Y171547D01*
Y172032D01*
Y235236D01*
Y235527D01*
X102476Y236098D01*
X102698Y236635D01*
X103021Y237119D01*
X103433Y237530D01*
X103916Y237853D01*
X104454Y238075D01*
X105024Y238189D01*
X302682D01*
X303626Y238001D01*
D02*
G37*
G36*
X156841Y225994D02*
X156341Y225787D01*
X155218Y226910D01*
X154892Y227128D01*
X154508Y227204D01*
X154346D01*
Y229155D01*
X154285Y229462D01*
X154112Y229722D01*
X153852Y229895D01*
X153545Y229956D01*
X147293D01*
Y233944D01*
X147106Y234396D01*
X146784Y234717D01*
X146805Y234900D01*
X146938Y235217D01*
X156841D01*
Y225994D01*
D02*
G37*
G36*
X209991Y224368D02*
X209584Y224142D01*
X206279D01*
X204908Y225513D01*
X204583Y225730D01*
X204199Y225807D01*
X202255D01*
X201200Y226861D01*
Y232261D01*
X204156Y235217D01*
X209991D01*
Y224368D01*
D02*
G37*
G36*
X262795Y221738D02*
X246063D01*
Y235217D01*
X262795D01*
Y221738D01*
D02*
G37*
G36*
X197815Y232252D02*
Y226660D01*
X196962Y225807D01*
X195473D01*
X195088Y225730D01*
X194763Y225513D01*
X193266Y224016D01*
X189961D01*
Y220079D01*
X194133D01*
X194341Y219579D01*
X193266Y218504D01*
X189961D01*
Y214567D01*
X194685D01*
Y217085D01*
X196906Y219306D01*
X197124Y219631D01*
X197200Y220015D01*
Y220500D01*
X199543D01*
Y224043D01*
X198744D01*
X198537Y224543D01*
X199529Y225535D01*
X199674Y225549D01*
X201130Y224094D01*
X201455Y223876D01*
X201839Y223800D01*
X203783D01*
X204860Y222723D01*
Y220205D01*
X209584D01*
X209991Y219979D01*
Y218856D01*
X209584Y218630D01*
X209491Y218630D01*
X204860D01*
Y218630D01*
X204567Y218335D01*
X200236D01*
Y214791D01*
X204567D01*
X204567Y214791D01*
X204860Y214693D01*
Y214693D01*
X205026Y214693D01*
X209491D01*
X209584Y214693D01*
X209991Y214467D01*
Y204882D01*
X210178Y204430D01*
X210630Y204243D01*
X245472D01*
X245924Y204430D01*
X246112Y204882D01*
Y206496D01*
X254745D01*
Y204882D01*
X254821Y204498D01*
X255038Y204172D01*
X256023Y203188D01*
X256348Y202971D01*
X256732Y202894D01*
X258484D01*
Y199057D01*
X254409Y194981D01*
X254191Y194656D01*
X254115Y194272D01*
Y179943D01*
X233936Y159765D01*
X233718Y159439D01*
X233642Y159055D01*
Y147854D01*
X225612D01*
X225049Y148418D01*
Y150686D01*
X224977Y150858D01*
X224941Y151041D01*
X224918Y151076D01*
X224830Y151518D01*
X224918Y151960D01*
X224941Y151995D01*
X224977Y152178D01*
X225049Y152350D01*
Y158656D01*
X225010Y158749D01*
X225021Y158803D01*
X224908Y159370D01*
X225021Y159937D01*
X225010Y159991D01*
X225049Y160084D01*
Y166609D01*
X225010Y166701D01*
X225021Y166756D01*
X224908Y167323D01*
X225021Y167889D01*
X225010Y167944D01*
X225049Y168037D01*
Y174820D01*
X224977Y174992D01*
X224941Y175175D01*
X224918Y175210D01*
X224830Y175652D01*
X224918Y176093D01*
X224941Y176128D01*
X224977Y176311D01*
X225049Y176484D01*
Y185827D01*
X225021Y185894D01*
X225355Y186394D01*
X226063D01*
Y190699D01*
X243307Y190699D01*
X243759Y190887D01*
X247696Y194824D01*
X247883Y195276D01*
Y201969D01*
X247696Y202420D01*
X247244Y202608D01*
X208268D01*
Y205827D01*
X203543D01*
Y205827D01*
X203150D01*
Y205827D01*
X199883D01*
X199692Y206289D01*
X199950Y206546D01*
X200146Y206839D01*
X200214Y207185D01*
Y207402D01*
X203150D01*
Y207402D01*
X203543D01*
Y207402D01*
X208268D01*
Y211339D01*
X203543D01*
Y211339D01*
X203150D01*
Y211339D01*
X198499D01*
X198032Y211417D01*
X198031Y211417D01*
Y211417D01*
X193307D01*
Y208453D01*
X193290Y208366D01*
Y207874D01*
X191389Y205973D01*
X191291Y205827D01*
X188709D01*
Y235217D01*
X194850D01*
X197815Y232252D01*
D02*
G37*
G36*
X146653Y233944D02*
Y229838D01*
X146479Y229722D01*
X146305Y229462D01*
X146245Y229155D01*
Y226002D01*
X146305Y225695D01*
X146479Y225436D01*
X146739Y225262D01*
X147045Y225201D01*
X151654D01*
X151673Y225197D01*
X153937D01*
Y216356D01*
X139943D01*
X139764Y216535D01*
Y234252D01*
X146240D01*
X146293Y234305D01*
X146653Y233944D01*
D02*
G37*
G36*
X125000Y220472D02*
X130315Y220472D01*
X130315Y211614D01*
X123380D01*
X123267Y211886D01*
X122668Y212667D01*
X121886Y213267D01*
X120976Y213644D01*
X120000Y213772D01*
X119024Y213644D01*
X118114Y213267D01*
X117332Y212667D01*
X116733Y211886D01*
X116620Y211614D01*
X115157D01*
X115157Y174862D01*
X114764Y174468D01*
X105315D01*
Y235236D01*
X125000D01*
Y220472D01*
D02*
G37*
G36*
X153937Y211699D02*
Y200591D01*
X138779D01*
Y211083D01*
X140157D01*
Y211024D01*
X144095D01*
Y211083D01*
X144154D01*
X145164Y212093D01*
X153774D01*
X153937Y211699D01*
D02*
G37*
G36*
X262795Y221075D02*
X262795Y204941D01*
X257108D01*
X257067Y204982D01*
Y211083D01*
X256732Y211418D01*
Y211614D01*
X256536D01*
X256058Y212093D01*
X246569D01*
X246063Y212598D01*
Y220737D01*
X246417Y221090D01*
X262795Y221075D01*
D02*
G37*
G36*
X245424Y221738D02*
X245472Y221621D01*
Y220854D01*
X245424Y220737D01*
X245424Y220737D01*
X245424Y220737D01*
Y212598D01*
X245472Y212481D01*
Y204882D01*
X210630D01*
Y235217D01*
X245424D01*
Y221738D01*
D02*
G37*
G36*
X188070Y203625D02*
X157480D01*
Y235217D01*
X188070D01*
Y203625D01*
D02*
G37*
G36*
X188189Y202906D02*
Y201890D01*
X191291D01*
X191389Y201743D01*
X192050Y201083D01*
Y200583D01*
X191550Y200249D01*
X191509Y200265D01*
X179232D01*
Y202986D01*
X188070D01*
X188189Y202906D01*
D02*
G37*
G36*
X191509Y194658D02*
X191458Y194606D01*
X189961D01*
X186909Y197658D01*
X176181D01*
Y199626D01*
X191509D01*
Y194658D01*
D02*
G37*
G36*
X247244Y195276D02*
X243307Y191339D01*
X211417Y191339D01*
X209539Y193217D01*
X209151Y193797D01*
X208565Y194189D01*
X207874Y194326D01*
X207183Y194189D01*
X207042Y194095D01*
X198320D01*
X198052Y194595D01*
X198054Y194606D01*
Y196850D01*
X198031Y196963D01*
Y198425D01*
X204724D01*
X205028Y198729D01*
X205608Y199116D01*
X205995Y199696D01*
X208189Y201890D01*
X208268D01*
Y201969D01*
X247244D01*
Y195276D01*
D02*
G37*
G36*
X206413Y191517D02*
X206597Y191242D01*
X207183Y190851D01*
X207874Y190713D01*
X208197Y190778D01*
X213928Y185047D01*
Y147638D01*
X214115Y147186D01*
X214567Y146999D01*
X223432Y146999D01*
X223577Y146809D01*
X223329Y146309D01*
X213238D01*
Y154035D01*
Y182044D01*
X213050Y182496D01*
X212598Y182683D01*
X206253D01*
X205967Y183031D01*
X205896Y183388D01*
X206111Y183610D01*
X206302Y183718D01*
X206351Y183686D01*
X207042Y183548D01*
X207733Y183686D01*
X208319Y184077D01*
X208711Y184663D01*
X208848Y185354D01*
X208711Y186046D01*
X208319Y186632D01*
X207733Y187023D01*
X207042Y187161D01*
X206453Y187044D01*
X206192Y187128D01*
X205897Y187321D01*
X205879Y187414D01*
X205755Y187599D01*
X205667Y187953D01*
X205755Y188307D01*
X205879Y188491D01*
X205967Y188937D01*
X205879Y189383D01*
X205626Y189760D01*
Y190082D01*
X205879Y190460D01*
X205967Y190905D01*
X205879Y191351D01*
X205755Y191536D01*
X205752Y191549D01*
X205783Y191581D01*
X206413Y191517D01*
D02*
G37*
G36*
X296260Y230245D02*
X296228Y230000D01*
X296260Y229755D01*
Y220245D01*
X296228Y220000D01*
X296260Y219755D01*
Y210245D01*
X296228Y210000D01*
X296260Y209755D01*
Y200245D01*
X296228Y200000D01*
X296260Y199755D01*
Y190245D01*
X296228Y190000D01*
X296260Y189755D01*
Y174331D01*
X285019D01*
X282480Y176869D01*
Y221738D01*
X279809Y224410D01*
X275590D01*
Y229899D01*
X278563D01*
X279030Y229961D01*
X281909D01*
Y230413D01*
X282480Y230984D01*
Y236221D01*
X296260D01*
Y230245D01*
D02*
G37*
G36*
X186562Y183924D02*
X187008Y183836D01*
X189252D01*
X189587Y183903D01*
X190492Y183849D01*
Y182539D01*
X191245D01*
Y182007D01*
X191316Y181835D01*
X191353Y181652D01*
X191458Y181495D01*
X191509Y181236D01*
Y179118D01*
X191458Y178859D01*
X191353Y178702D01*
X191316Y178519D01*
X191245Y178347D01*
Y176772D01*
X188976D01*
Y160433D01*
X168366D01*
Y168307D01*
X175197D01*
Y180629D01*
X181850D01*
Y181786D01*
X181984Y181986D01*
X182121Y182677D01*
X181984Y183368D01*
X181859Y183555D01*
X181953Y184055D01*
X186367D01*
X186562Y183924D01*
D02*
G37*
G36*
X224409Y176484D02*
X224315Y176343D01*
X224178Y175652D01*
X224315Y174960D01*
X224409Y174820D01*
Y168037D01*
X224394Y168014D01*
X224257Y167323D01*
X224394Y166632D01*
X224409Y166609D01*
Y160084D01*
X224394Y160061D01*
X224257Y159370D01*
X224394Y158679D01*
X224409Y158656D01*
Y152350D01*
X224315Y152209D01*
X224178Y151518D01*
X224315Y150827D01*
X224409Y150686D01*
Y147638D01*
X214567Y147638D01*
Y185827D01*
X224409D01*
Y176484D01*
D02*
G37*
G36*
X162598Y183025D02*
X173622Y182933D01*
Y169606D01*
X165354D01*
Y145276D01*
X153937D01*
Y190945D01*
X162598D01*
X162598Y183025D01*
D02*
G37*
G36*
X201982Y182044D02*
X202114Y181956D01*
X202559Y181867D01*
X204803D01*
X205249Y181956D01*
X205380Y182044D01*
X212598D01*
Y154035D01*
D01*
Y145669D01*
X236221D01*
Y151378D01*
X270411D01*
Y139764D01*
X166684D01*
Y154035D01*
X205118D01*
Y155823D01*
X205176Y155847D01*
X205364Y156299D01*
Y169291D01*
X205176Y169743D01*
X205118Y169767D01*
Y173909D01*
X205118Y174016D01*
X205118Y174016D01*
X205118Y174409D01*
X204876D01*
X204868Y174409D01*
X202216D01*
X199342Y177283D01*
X199307Y177463D01*
X198915Y178049D01*
X198329Y178440D01*
X198150Y178476D01*
X198133Y178492D01*
Y180138D01*
X198133Y180138D01*
X198054Y180537D01*
Y181299D01*
X198031Y181412D01*
Y182044D01*
X201982D01*
D02*
G37*
%LPC*%
G36*
X300500Y234120D02*
Y230500D01*
X304120D01*
X304043Y231083D01*
X303625Y232093D01*
X302959Y232960D01*
X302093Y233625D01*
X301083Y234043D01*
X300500Y234120D01*
D02*
G37*
G36*
X304120Y229500D02*
X300500D01*
Y225880D01*
X301083Y225957D01*
X302093Y226375D01*
X302959Y227041D01*
X303625Y227907D01*
X304043Y228917D01*
X304120Y229500D01*
D02*
G37*
G36*
X300500Y224120D02*
Y220500D01*
X304120D01*
X304043Y221083D01*
X303625Y222093D01*
X302959Y222959D01*
X302093Y223625D01*
X301083Y224043D01*
X300500Y224120D01*
D02*
G37*
G36*
X304120Y219500D02*
X300500D01*
Y215880D01*
X301083Y215957D01*
X302093Y216375D01*
X302959Y217040D01*
X303625Y217907D01*
X304043Y218917D01*
X304120Y219500D01*
D02*
G37*
G36*
X300500Y214120D02*
Y210500D01*
X304120D01*
X304043Y211083D01*
X303625Y212093D01*
X302959Y212960D01*
X302093Y213625D01*
X301083Y214043D01*
X300500Y214120D01*
D02*
G37*
G36*
X304120Y209500D02*
X300500D01*
Y205880D01*
X301083Y205957D01*
X302093Y206375D01*
X302959Y207041D01*
X303625Y207907D01*
X304043Y208917D01*
X304120Y209500D01*
D02*
G37*
G36*
X124120D02*
X120500D01*
Y205880D01*
X121083Y205957D01*
X122093Y206375D01*
X122959Y207041D01*
X123625Y207907D01*
X124043Y208917D01*
X124120Y209500D01*
D02*
G37*
G36*
X300500Y204120D02*
Y200500D01*
X304120D01*
X304043Y201083D01*
X303625Y202093D01*
X302959Y202959D01*
X302093Y203625D01*
X301083Y204043D01*
X300500Y204120D01*
D02*
G37*
G36*
X120500D02*
Y200500D01*
X124120D01*
X124043Y201083D01*
X123625Y202093D01*
X122959Y202959D01*
X122093Y203625D01*
X121083Y204043D01*
X120500Y204120D01*
D02*
G37*
G36*
X304120Y199500D02*
X300500D01*
Y195880D01*
X301083Y195957D01*
X302093Y196375D01*
X302959Y197040D01*
X303625Y197907D01*
X304043Y198917D01*
X304120Y199500D01*
D02*
G37*
G36*
X124120D02*
X120500D01*
Y195880D01*
X121083Y195957D01*
X122093Y196375D01*
X122959Y197040D01*
X123625Y197907D01*
X124043Y198917D01*
X124120Y199500D01*
D02*
G37*
G36*
X300500Y194120D02*
Y190500D01*
X304120D01*
X304043Y191083D01*
X303625Y192093D01*
X302959Y192959D01*
X302093Y193625D01*
X301083Y194043D01*
X300500Y194120D01*
D02*
G37*
G36*
X120500D02*
Y190500D01*
X124120D01*
X124043Y191083D01*
X123625Y192093D01*
X122959Y192959D01*
X122093Y193625D01*
X121083Y194043D01*
X120500Y194120D01*
D02*
G37*
G36*
X266248Y191910D02*
Y188886D01*
X269272D01*
X269215Y189315D01*
X268857Y190181D01*
X268286Y190924D01*
X267543Y191495D01*
X266677Y191853D01*
X266248Y191910D01*
D02*
G37*
G36*
X265248D02*
X264819Y191853D01*
X263953Y191495D01*
X263210Y190924D01*
X262639Y190181D01*
X262281Y189315D01*
X262224Y188886D01*
X265248D01*
Y191910D01*
D02*
G37*
G36*
X304120Y189500D02*
X300500D01*
Y185880D01*
X301083Y185957D01*
X302093Y186375D01*
X302959Y187040D01*
X303625Y187907D01*
X304043Y188917D01*
X304120Y189500D01*
D02*
G37*
G36*
X124120D02*
X120500D01*
Y185880D01*
X121083Y185957D01*
X122093Y186375D01*
X122959Y187040D01*
X123625Y187907D01*
X124043Y188917D01*
X124120Y189500D01*
D02*
G37*
G36*
X269272Y187886D02*
X266248D01*
Y184862D01*
X266677Y184918D01*
X267543Y185277D01*
X268286Y185847D01*
X268857Y186591D01*
X269215Y187457D01*
X269272Y187886D01*
D02*
G37*
G36*
X265248D02*
X262224D01*
X262281Y187457D01*
X262639Y186591D01*
X263210Y185847D01*
X263953Y185277D01*
X264819Y184918D01*
X265248Y184862D01*
Y187886D01*
D02*
G37*
G36*
X304150Y184150D02*
X300500D01*
Y180500D01*
X304150D01*
Y184150D01*
D02*
G37*
G36*
X120500D02*
Y180500D01*
X124150D01*
Y184150D01*
X120500D01*
D02*
G37*
G36*
X304150Y179500D02*
X300500D01*
Y175850D01*
X304150D01*
Y179500D01*
D02*
G37*
G36*
X124150D02*
X120500D01*
Y175850D01*
X124150D01*
Y179500D01*
D02*
G37*
G36*
X273228Y166614D02*
X268150D01*
Y163605D01*
X268108Y163287D01*
Y162539D01*
X268150Y162222D01*
Y159961D01*
X269406D01*
X269572Y159752D01*
X269332Y159252D01*
X267345D01*
Y163268D01*
X267284Y163734D01*
Y166614D01*
X262205D01*
Y163794D01*
X262143Y163327D01*
X262183Y163028D01*
Y156890D01*
X262271Y156222D01*
X262402Y155905D01*
Y154134D01*
X264793D01*
X264961Y154112D01*
X266535D01*
X266703Y154134D01*
X270669D01*
Y158694D01*
X270731Y158790D01*
X271169Y159092D01*
X271614Y159033D01*
X276106D01*
Y156405D01*
X284209D01*
Y157272D01*
X284671Y157464D01*
X286523Y155611D01*
X286610Y154955D01*
X286976Y154069D01*
X287560Y153308D01*
X288321Y152725D01*
X289207Y152357D01*
X290158Y152232D01*
X291108Y152357D01*
X291994Y152725D01*
X292755Y153308D01*
X293338Y154069D01*
X293706Y154955D01*
X293831Y155905D01*
X293706Y156856D01*
X293338Y157742D01*
X292755Y158503D01*
X291994Y159087D01*
X291108Y159453D01*
X290158Y159579D01*
X289891Y159544D01*
X285995Y163439D01*
X285461Y163849D01*
X284838Y164107D01*
X284170Y164195D01*
X273228D01*
Y166614D01*
D02*
G37*
G36*
X300658Y159926D02*
Y156405D01*
X304178D01*
X304104Y156963D01*
X303696Y157949D01*
X303047Y158795D01*
X302201Y159444D01*
X301215Y159852D01*
X300658Y159926D01*
D02*
G37*
G36*
X299658D02*
X299100Y159852D01*
X298114Y159444D01*
X297268Y158795D01*
X296619Y157949D01*
X296211Y156963D01*
X296137Y156405D01*
X299658D01*
Y159926D01*
D02*
G37*
G36*
X304178Y155405D02*
X300658D01*
Y151885D01*
X301215Y151959D01*
X302201Y152367D01*
X303047Y153016D01*
X303696Y153862D01*
X304104Y154848D01*
X304178Y155405D01*
D02*
G37*
G36*
X299658D02*
X296137D01*
X296211Y154848D01*
X296619Y153862D01*
X297268Y153016D01*
X298114Y152367D01*
X299100Y151959D01*
X299658Y151885D01*
Y155405D01*
D02*
G37*
G36*
X284209D02*
X280658D01*
Y151854D01*
X284209D01*
Y155405D01*
D02*
G37*
G36*
X279658D02*
X276106D01*
Y151854D01*
X279658D01*
Y155405D01*
D02*
G37*
G36*
X110500Y234120D02*
Y230500D01*
X114120D01*
X114043Y231083D01*
X113625Y232093D01*
X112960Y232960D01*
X112093Y233625D01*
X111083Y234043D01*
X110500Y234120D01*
D02*
G37*
G36*
X109500D02*
X108917Y234043D01*
X107907Y233625D01*
X107041Y232960D01*
X106375Y232093D01*
X105957Y231083D01*
X105880Y230500D01*
X109500D01*
Y234120D01*
D02*
G37*
G36*
X120000Y233772D02*
X119024Y233644D01*
X118114Y233267D01*
X117332Y232667D01*
X116733Y231886D01*
X116356Y230976D01*
X116228Y230000D01*
X116356Y229024D01*
X116733Y228114D01*
X117332Y227332D01*
X118114Y226733D01*
X119024Y226356D01*
X120000Y226228D01*
X120976Y226356D01*
X121886Y226733D01*
X122668Y227332D01*
X123267Y228114D01*
X123644Y229024D01*
X123772Y230000D01*
X123644Y230976D01*
X123267Y231886D01*
X122668Y232667D01*
X121886Y233267D01*
X120976Y233644D01*
X120000Y233772D01*
D02*
G37*
G36*
X114120Y229500D02*
X110500D01*
Y225880D01*
X111083Y225957D01*
X112093Y226375D01*
X112960Y227041D01*
X113625Y227907D01*
X114043Y228917D01*
X114120Y229500D01*
D02*
G37*
G36*
X109500D02*
X105880D01*
X105957Y228917D01*
X106375Y227907D01*
X107041Y227041D01*
X107907Y226375D01*
X108917Y225957D01*
X109500Y225880D01*
Y229500D01*
D02*
G37*
G36*
X110500Y224120D02*
Y220500D01*
X114120D01*
X114043Y221083D01*
X113625Y222093D01*
X112960Y222959D01*
X112093Y223625D01*
X111083Y224043D01*
X110500Y224120D01*
D02*
G37*
G36*
X109500D02*
X108917Y224043D01*
X107907Y223625D01*
X107041Y222959D01*
X106375Y222093D01*
X105957Y221083D01*
X105880Y220500D01*
X109500D01*
Y224120D01*
D02*
G37*
G36*
X120000Y223772D02*
X119024Y223644D01*
X118114Y223267D01*
X117332Y222668D01*
X116733Y221886D01*
X116356Y220976D01*
X116228Y220000D01*
X116356Y219024D01*
X116733Y218114D01*
X117332Y217333D01*
X118114Y216733D01*
X119024Y216356D01*
X120000Y216228D01*
X120976Y216356D01*
X121886Y216733D01*
X122668Y217333D01*
X123267Y218114D01*
X123644Y219024D01*
X123772Y220000D01*
X123644Y220976D01*
X123267Y221886D01*
X122668Y222668D01*
X121886Y223267D01*
X120976Y223644D01*
X120000Y223772D01*
D02*
G37*
G36*
X114120Y219500D02*
X110500D01*
Y215880D01*
X111083Y215957D01*
X112093Y216375D01*
X112960Y217040D01*
X113625Y217907D01*
X114043Y218917D01*
X114120Y219500D01*
D02*
G37*
G36*
X109500D02*
X105880D01*
X105957Y218917D01*
X106375Y217907D01*
X107041Y217040D01*
X107907Y216375D01*
X108917Y215957D01*
X109500Y215880D01*
Y219500D01*
D02*
G37*
G36*
X110500Y214120D02*
Y210500D01*
X114120D01*
X114043Y211083D01*
X113625Y212093D01*
X112960Y212960D01*
X112093Y213625D01*
X111083Y214043D01*
X110500Y214120D01*
D02*
G37*
G36*
X109500D02*
X108917Y214043D01*
X107907Y213625D01*
X107041Y212960D01*
X106375Y212093D01*
X105957Y211083D01*
X105880Y210500D01*
X109500D01*
Y214120D01*
D02*
G37*
G36*
X114120Y209500D02*
X110500D01*
Y205880D01*
X111083Y205957D01*
X112093Y206375D01*
X112960Y207041D01*
X113625Y207907D01*
X114043Y208917D01*
X114120Y209500D01*
D02*
G37*
G36*
X109500D02*
X105880D01*
X105957Y208917D01*
X106375Y207907D01*
X107041Y207041D01*
X107907Y206375D01*
X108917Y205957D01*
X109500Y205880D01*
Y209500D01*
D02*
G37*
G36*
X110500Y204120D02*
Y200500D01*
X114120D01*
X114043Y201083D01*
X113625Y202093D01*
X112960Y202959D01*
X112093Y203625D01*
X111083Y204043D01*
X110500Y204120D01*
D02*
G37*
G36*
X109500D02*
X108917Y204043D01*
X107907Y203625D01*
X107041Y202959D01*
X106375Y202093D01*
X105957Y201083D01*
X105880Y200500D01*
X109500D01*
Y204120D01*
D02*
G37*
G36*
X114120Y199500D02*
X110500D01*
Y195880D01*
X111083Y195957D01*
X112093Y196375D01*
X112960Y197040D01*
X113625Y197907D01*
X114043Y198917D01*
X114120Y199500D01*
D02*
G37*
G36*
X109500D02*
X105880D01*
X105957Y198917D01*
X106375Y197907D01*
X107041Y197040D01*
X107907Y196375D01*
X108917Y195957D01*
X109500Y195880D01*
Y199500D01*
D02*
G37*
G36*
X110500Y194120D02*
Y190500D01*
X114120D01*
X114043Y191083D01*
X113625Y192093D01*
X112960Y192959D01*
X112093Y193625D01*
X111083Y194043D01*
X110500Y194120D01*
D02*
G37*
G36*
X109500D02*
X108917Y194043D01*
X107907Y193625D01*
X107041Y192959D01*
X106375Y192093D01*
X105957Y191083D01*
X105880Y190500D01*
X109500D01*
Y194120D01*
D02*
G37*
G36*
X114120Y189500D02*
X110500D01*
Y185880D01*
X111083Y185957D01*
X112093Y186375D01*
X112960Y187040D01*
X113625Y187907D01*
X114043Y188917D01*
X114120Y189500D01*
D02*
G37*
G36*
X109500D02*
X105880D01*
X105957Y188917D01*
X106375Y187907D01*
X107041Y187040D01*
X107907Y186375D01*
X108917Y185957D01*
X109500Y185880D01*
Y189500D01*
D02*
G37*
G36*
X114150Y184150D02*
X110500D01*
Y180500D01*
X114150D01*
Y184150D01*
D02*
G37*
G36*
X109500D02*
X105850D01*
Y180500D01*
X109500D01*
Y184150D01*
D02*
G37*
G36*
X114150Y179500D02*
X110500D01*
Y175850D01*
X114150D01*
Y179500D01*
D02*
G37*
G36*
X109500D02*
X105850D01*
Y175850D01*
X109500D01*
Y179500D01*
D02*
G37*
G36*
X290500Y234120D02*
Y230500D01*
X294120D01*
X294043Y231083D01*
X293625Y232093D01*
X292959Y232960D01*
X292093Y233625D01*
X291083Y234043D01*
X290500Y234120D01*
D02*
G37*
G36*
X289500D02*
X288917Y234043D01*
X287907Y233625D01*
X287040Y232960D01*
X286375Y232093D01*
X285957Y231083D01*
X285880Y230500D01*
X289500D01*
Y234120D01*
D02*
G37*
G36*
X294120Y229500D02*
X290500D01*
Y225880D01*
X291083Y225957D01*
X292093Y226375D01*
X292959Y227041D01*
X293625Y227907D01*
X294043Y228917D01*
X294120Y229500D01*
D02*
G37*
G36*
X289500D02*
X285880D01*
X285957Y228917D01*
X286375Y227907D01*
X287040Y227041D01*
X287907Y226375D01*
X288917Y225957D01*
X289500Y225880D01*
Y229500D01*
D02*
G37*
G36*
X290500Y224120D02*
Y220500D01*
X294120D01*
X294043Y221083D01*
X293625Y222093D01*
X292959Y222959D01*
X292093Y223625D01*
X291083Y224043D01*
X290500Y224120D01*
D02*
G37*
G36*
X289500D02*
X288917Y224043D01*
X287907Y223625D01*
X287040Y222959D01*
X286375Y222093D01*
X285957Y221083D01*
X285880Y220500D01*
X289500D01*
Y224120D01*
D02*
G37*
G36*
X294120Y219500D02*
X290500D01*
Y215880D01*
X291083Y215957D01*
X292093Y216375D01*
X292959Y217040D01*
X293625Y217907D01*
X294043Y218917D01*
X294120Y219500D01*
D02*
G37*
G36*
X289500D02*
X285880D01*
X285957Y218917D01*
X286375Y217907D01*
X287040Y217040D01*
X287907Y216375D01*
X288917Y215957D01*
X289500Y215880D01*
Y219500D01*
D02*
G37*
G36*
X290500Y214120D02*
Y210500D01*
X294120D01*
X294043Y211083D01*
X293625Y212093D01*
X292959Y212960D01*
X292093Y213625D01*
X291083Y214043D01*
X290500Y214120D01*
D02*
G37*
G36*
X289500D02*
X288917Y214043D01*
X287907Y213625D01*
X287040Y212960D01*
X286375Y212093D01*
X285957Y211083D01*
X285880Y210500D01*
X289500D01*
Y214120D01*
D02*
G37*
G36*
X294120Y209500D02*
X290500D01*
Y205880D01*
X291083Y205957D01*
X292093Y206375D01*
X292959Y207041D01*
X293625Y207907D01*
X294043Y208917D01*
X294120Y209500D01*
D02*
G37*
G36*
X289500D02*
X285880D01*
X285957Y208917D01*
X286375Y207907D01*
X287040Y207041D01*
X287907Y206375D01*
X288917Y205957D01*
X289500Y205880D01*
Y209500D01*
D02*
G37*
G36*
X290500Y204120D02*
Y200500D01*
X294120D01*
X294043Y201083D01*
X293625Y202093D01*
X292959Y202959D01*
X292093Y203625D01*
X291083Y204043D01*
X290500Y204120D01*
D02*
G37*
G36*
X289500D02*
X288917Y204043D01*
X287907Y203625D01*
X287040Y202959D01*
X286375Y202093D01*
X285957Y201083D01*
X285880Y200500D01*
X289500D01*
Y204120D01*
D02*
G37*
G36*
X294120Y199500D02*
X290500D01*
Y195880D01*
X291083Y195957D01*
X292093Y196375D01*
X292959Y197040D01*
X293625Y197907D01*
X294043Y198917D01*
X294120Y199500D01*
D02*
G37*
G36*
X289500D02*
X285880D01*
X285957Y198917D01*
X286375Y197907D01*
X287040Y197040D01*
X287907Y196375D01*
X288917Y195957D01*
X289500Y195880D01*
Y199500D01*
D02*
G37*
G36*
X290500Y194120D02*
Y190500D01*
X294120D01*
X294043Y191083D01*
X293625Y192093D01*
X292959Y192959D01*
X292093Y193625D01*
X291083Y194043D01*
X290500Y194120D01*
D02*
G37*
G36*
X289500D02*
X288917Y194043D01*
X287907Y193625D01*
X287040Y192959D01*
X286375Y192093D01*
X285957Y191083D01*
X285880Y190500D01*
X289500D01*
Y194120D01*
D02*
G37*
G36*
X294120Y189500D02*
X290500D01*
Y185880D01*
X291083Y185957D01*
X292093Y186375D01*
X292959Y187040D01*
X293625Y187907D01*
X294043Y188917D01*
X294120Y189500D01*
D02*
G37*
G36*
X289500D02*
X285880D01*
X285957Y188917D01*
X286375Y187907D01*
X287040Y187040D01*
X287907Y186375D01*
X288917Y185957D01*
X289500Y185880D01*
Y189500D01*
D02*
G37*
G36*
X294150Y184150D02*
X290500D01*
Y180500D01*
X294150D01*
Y184150D01*
D02*
G37*
G36*
X289500D02*
X285850D01*
Y180500D01*
X289500D01*
Y184150D01*
D02*
G37*
G36*
X294150Y179500D02*
X290500D01*
Y175850D01*
X294150D01*
Y179500D01*
D02*
G37*
G36*
X289500D02*
X285850D01*
Y175850D01*
X289500D01*
Y179500D01*
D02*
G37*
%LPD*%
D12*
X234646Y159055D02*
X255118Y179528D01*
X234646Y146850D02*
Y159055D01*
X225197Y146850D02*
X234646D01*
X255118Y194272D02*
X261811Y200965D01*
X255118Y179528D02*
Y194272D01*
X223425Y148622D02*
X225197Y146850D01*
X255748Y204882D02*
X256732Y203898D01*
X255748Y204882D02*
Y207480D01*
X220374Y148622D02*
X223425D01*
X218898Y150098D02*
X220374Y148622D01*
X218898Y150098D02*
Y151575D01*
X207874Y192520D02*
X216303Y184091D01*
X219366D01*
X220472Y182985D01*
X195266Y236221D02*
X198819Y232667D01*
X134232Y236221D02*
X195266D01*
X130709Y232697D02*
X134232Y236221D01*
X200787Y209370D02*
X205906D01*
X176772Y199134D02*
X178248Y197658D01*
X176772Y199134D02*
Y199921D01*
X207124Y216563D02*
X207222Y216661D01*
X202402Y216563D02*
X207124D01*
X196984Y222272D02*
X197378D01*
X196196Y221484D02*
X196984Y222272D01*
X196196Y220015D02*
Y221484D01*
X192717Y216535D02*
X196196Y220015D01*
X192323Y216535D02*
X192717D01*
X267756Y236221D02*
X269331Y234646D01*
X269921D01*
X271496Y233071D01*
Y232480D02*
Y233071D01*
X203741Y236221D02*
X267756D01*
X200197Y232677D02*
X203741Y236221D01*
X200197Y226446D02*
Y232677D01*
Y226446D02*
X201839Y224803D01*
X204199D01*
X206828Y222173D01*
X207222D01*
X198819Y226244D02*
Y232667D01*
X197378Y224803D02*
X198819Y226244D01*
X195473Y224803D02*
X197378D01*
X192717Y222047D02*
X195473Y224803D01*
X192323Y222047D02*
X192717D01*
X273622Y206693D02*
Y212795D01*
X270827Y203898D02*
X273622Y206693D01*
X256732Y203898D02*
X270827D01*
X254173Y209055D02*
X255748Y207480D01*
X251417Y209055D02*
X254173D01*
X278583Y212795D02*
X278583Y212795D01*
X273622Y212795D02*
X278583D01*
X272638Y219291D02*
Y223228D01*
X268701Y227165D02*
X272638Y223228D01*
X260866Y227165D02*
X268701D01*
X272638Y219291D02*
X273622Y218307D01*
X192323Y216535D02*
X192323Y216535D01*
X192290Y222015D02*
X192323Y222047D01*
X130709Y231122D02*
Y232697D01*
X130315Y230728D02*
X130709Y231122D01*
X130315Y223858D02*
Y230728D01*
X153150Y193307D02*
X154823Y191634D01*
Y188799D02*
Y191634D01*
Y188799D02*
X156299Y187323D01*
X143307Y193307D02*
X153150D01*
X141102Y191102D02*
X143307Y193307D01*
X137382Y191102D02*
X141102D01*
X135827Y189547D02*
X137382Y191102D01*
X139961Y201398D02*
X141339Y202776D01*
X139961Y199626D02*
Y201398D01*
X138169Y197835D02*
X139961Y199626D01*
X138169Y197047D02*
Y197835D01*
X136614Y195492D02*
X138169Y197047D01*
X135827Y195492D02*
X136614D01*
X154508Y226201D02*
X155905Y224803D01*
X151673Y226201D02*
X154508D01*
X150295Y227579D02*
X151673Y226201D01*
X155905Y214961D02*
Y224803D01*
X154331Y213386D02*
X155905Y214961D01*
X142126Y213386D02*
X154331D01*
X142126D02*
Y213779D01*
X141142Y214764D02*
X142126Y213779D01*
X139980Y214764D02*
X141142D01*
X136614Y218130D02*
X139980Y214764D01*
X136614Y218130D02*
Y218524D01*
Y218917D01*
X137598Y219902D01*
X136614Y213386D02*
X136614Y213386D01*
X204331Y200394D02*
X204528Y200591D01*
Y203661D01*
X204724Y203858D01*
X207874Y192520D02*
Y192520D01*
X177284Y182677D02*
X180315D01*
X176969Y182992D02*
X177284Y182677D01*
X174409Y185354D02*
X185118D01*
X188070Y185060D02*
X188130Y185000D01*
X185118Y185354D02*
X185412Y185060D01*
X188070D01*
X172047Y182992D02*
X174409Y185354D01*
X171653Y182992D02*
X172047D01*
D14*
X203681Y185000D02*
X206688D01*
X207042Y185354D01*
X197638Y175591D02*
Y176772D01*
X200787Y203858D02*
X204724D01*
X178898Y186969D02*
X188130D01*
X177362Y188504D02*
X178898Y186969D01*
X181850Y188937D02*
X188130D01*
X179035Y191752D02*
X181850Y188937D01*
X195276Y209449D02*
X195669D01*
X194193Y208366D02*
X195276Y209449D01*
X194193Y207500D02*
Y208366D01*
X192028Y205335D02*
X194193Y207500D01*
X192028Y204941D02*
Y205335D01*
X190945Y203858D02*
X192028Y204941D01*
X190551Y203858D02*
X190945D01*
X200394Y209370D02*
X200787D01*
X199311Y208287D02*
X200394Y209370D01*
X199311Y207185D02*
Y208287D01*
X196063Y203937D02*
X199311Y207185D01*
X195669Y203937D02*
X196063D01*
X194921Y203189D02*
X195669Y203937D01*
X194921Y195728D02*
Y203189D01*
X192953Y195728D02*
Y201457D01*
X192028Y202382D02*
X192953Y201457D01*
X192028Y202382D02*
Y202776D01*
X190945Y203858D02*
X192028Y202776D01*
X196890Y198858D02*
X199311Y201279D01*
Y202776D01*
X200394Y203858D01*
X200787D01*
X196890Y195728D02*
Y198858D01*
X190984Y192874D02*
X192953Y190905D01*
X188130Y192874D02*
X190984D01*
X178642Y191752D02*
X179035D01*
X177559Y192835D02*
X178642Y191752D01*
X177559Y192835D02*
Y193228D01*
X171653Y188504D02*
X177362D01*
X166535D02*
X171653D01*
X166535Y188504D02*
X166535Y188504D01*
X203681Y188937D02*
Y190905D01*
Y186969D02*
Y188937D01*
Y185000D02*
Y186969D01*
D15*
X266535Y145669D02*
D03*
Y156693D02*
D03*
D16*
X246569Y148779D02*
D03*
X220472Y192241D02*
D03*
D17*
X246569Y158035D02*
D03*
X220472Y182985D02*
D03*
D18*
X256732Y158327D02*
D03*
Y149547D02*
D03*
D19*
X174902Y218524D02*
D03*
D20*
X150295Y209469D02*
D03*
Y218524D02*
D03*
Y227579D02*
D03*
D21*
X130709Y231122D02*
D03*
X141732D02*
D03*
X271496Y231496D02*
D03*
X260472D02*
D03*
D22*
X135039Y202776D02*
D03*
X141339D02*
D03*
X266772Y213386D02*
D03*
X260472D02*
D03*
D23*
X136614Y208681D02*
D03*
X142126D02*
D03*
X142126Y213386D02*
D03*
X136614D02*
D03*
X142126Y218524D02*
D03*
X136614D02*
D03*
X136614Y224035D02*
D03*
X142126D02*
D03*
X265197Y219291D02*
D03*
X259685D02*
D03*
X265197Y224409D02*
D03*
X259685D02*
D03*
X203150Y171653D02*
D03*
X208661D02*
D03*
X172047Y193228D02*
D03*
X177559D02*
D03*
D24*
X278583Y212795D02*
D03*
Y218307D02*
D03*
X273622Y218307D02*
D03*
Y212795D02*
D03*
X176969Y188504D02*
D03*
Y182992D02*
D03*
X171653Y182992D02*
D03*
Y188504D02*
D03*
X166535Y188504D02*
D03*
Y182992D02*
D03*
X205906Y209370D02*
D03*
Y203858D02*
D03*
X200787Y209370D02*
D03*
Y203858D02*
D03*
X195669Y209449D02*
D03*
Y203937D02*
D03*
X190551Y209370D02*
D03*
Y203858D02*
D03*
X207222Y222173D02*
D03*
Y216661D02*
D03*
X192323Y222047D02*
D03*
Y216535D02*
D03*
X198425Y166457D02*
D03*
Y171968D02*
D03*
D25*
X251417Y209055D02*
D03*
Y218110D02*
D03*
Y227165D02*
D03*
D26*
X228583Y218110D02*
D03*
D27*
X238189Y184370D02*
D03*
Y198937D02*
D03*
X177165Y148937D02*
D03*
Y163504D02*
D03*
D28*
X229921Y167323D02*
D03*
X218898D02*
D03*
X229921Y175652D02*
D03*
X218898D02*
D03*
X229921Y159449D02*
D03*
X218898D02*
D03*
X229921Y151575D02*
D03*
X218898D02*
D03*
X145276Y187323D02*
D03*
X156299D02*
D03*
X145276Y178661D02*
D03*
X156299D02*
D03*
X145276Y169606D02*
D03*
X156299D02*
D03*
X145276Y160945D02*
D03*
X156299D02*
D03*
D29*
X193307Y160945D02*
D03*
Y149921D02*
D03*
D30*
X201575Y159370D02*
D03*
X208661D02*
D03*
D31*
X170473Y199921D02*
D03*
X176772D02*
D03*
D32*
X168366Y174331D02*
D03*
D33*
X177622D02*
D03*
D34*
X190984Y180177D02*
D03*
X192953D02*
D03*
X194921D02*
D03*
X196890D02*
D03*
X198858D02*
D03*
X200827D02*
D03*
Y195728D02*
D03*
X198858D02*
D03*
X196890D02*
D03*
X194921D02*
D03*
X192953D02*
D03*
X190984D02*
D03*
D35*
X203681Y183031D02*
D03*
Y185000D02*
D03*
Y186969D02*
D03*
Y188937D02*
D03*
Y190905D02*
D03*
Y192874D02*
D03*
X188130D02*
D03*
Y190905D02*
D03*
Y188937D02*
D03*
Y186969D02*
D03*
Y185000D02*
D03*
Y183031D02*
D03*
D36*
X195905Y187953D02*
D03*
D37*
X202402Y222272D02*
D03*
Y216563D02*
D03*
X197378Y222272D02*
D03*
Y216563D02*
D03*
D38*
X130315Y223858D02*
D03*
Y217913D02*
D03*
X278583Y232500D02*
D03*
Y226555D02*
D03*
X135827Y189547D02*
D03*
Y195492D02*
D03*
X261811Y200965D02*
D03*
Y206909D02*
D03*
D39*
X264744Y163287D02*
D03*
X270689D02*
D03*
D71*
X246569Y148779D02*
Y149035D01*
X252539Y155006D01*
Y165335D01*
X265748Y178543D01*
X264961Y156693D02*
X266535D01*
X264764Y156890D02*
X264961Y156693D01*
X264764Y156890D02*
Y163268D01*
X264744Y163287D02*
X264764Y163268D01*
X270689Y162539D02*
Y163287D01*
Y162539D02*
X271614Y161614D01*
X284170D01*
X289879Y155905D01*
X290158D01*
X264724Y163327D02*
X264744Y163307D01*
X289743Y155491D02*
X290158Y155905D01*
X264744Y163287D02*
Y163307D01*
X271496Y232480D02*
X278563D01*
X278583Y232500D01*
X251417Y227165D02*
X254173D01*
X261063Y206909D02*
X261811D01*
X261043Y206929D02*
X261063Y206909D01*
D72*
X197638Y172835D02*
Y175591D01*
X196929Y177480D02*
Y180138D01*
Y177480D02*
X197638Y176772D01*
X196890Y180177D02*
X196929Y180138D01*
X198425Y172047D02*
X203150D01*
X203543Y171653D01*
X197638Y172835D02*
X198425Y172047D01*
D73*
X280157Y155905D02*
D03*
D74*
X290158D02*
D03*
X300157D02*
D03*
D75*
X120000Y220000D02*
D03*
Y210000D02*
D03*
Y200000D02*
D03*
Y190000D02*
D03*
Y230000D02*
D03*
X110000Y220000D02*
D03*
Y210000D02*
D03*
Y200000D02*
D03*
Y190000D02*
D03*
Y230000D02*
D03*
X300000Y220000D02*
D03*
Y210000D02*
D03*
Y200000D02*
D03*
Y190000D02*
D03*
Y230000D02*
D03*
X290000Y220000D02*
D03*
Y210000D02*
D03*
Y200000D02*
D03*
Y190000D02*
D03*
Y230000D02*
D03*
D76*
X120000Y180000D02*
D03*
X110000D02*
D03*
X300000D02*
D03*
X290000D02*
D03*
D77*
X265748Y178543D02*
D03*
D78*
Y188386D02*
D03*
D79*
X232283Y189370D02*
D03*
X238583D02*
D03*
X244094D02*
D03*
X225984Y151518D02*
D03*
Y175652D02*
D03*
X226063Y167323D02*
D03*
Y159370D02*
D03*
X235827Y164587D02*
D03*
Y168898D02*
D03*
Y172835D02*
D03*
Y176772D02*
D03*
X295275Y165354D02*
D03*
X283465D02*
D03*
X277559Y200787D02*
D03*
Y177165D02*
D03*
X253937Y200787D02*
D03*
X248031Y188976D02*
D03*
X147638Y153543D02*
D03*
X135827Y177165D02*
D03*
X275591Y196850D02*
D03*
X195905Y187953D02*
D03*
X192953Y185000D02*
D03*
Y190905D02*
D03*
X198858Y185000D02*
D03*
Y190905D02*
D03*
X132874Y206693D02*
D03*
X166535Y193307D02*
D03*
X278740Y216535D02*
D03*
X278543Y221091D02*
D03*
X267756Y218917D02*
D03*
Y221738D02*
D03*
Y224409D02*
D03*
X269921Y212093D02*
D03*
Y214567D02*
D03*
X148819Y157874D02*
D03*
Y181745D02*
D03*
Y175652D02*
D03*
Y172441D02*
D03*
Y166929D02*
D03*
Y163701D02*
D03*
X203543Y219614D02*
D03*
X136614Y229921D02*
D03*
X136614Y227332D02*
D03*
X133858Y209055D02*
D03*
Y213625D02*
D03*
X134991Y199213D02*
D03*
X131496Y202959D02*
D03*
X148819Y187323D02*
D03*
Y178859D02*
D03*
Y169743D02*
D03*
Y160945D02*
D03*
X185039Y193504D02*
D03*
X169291Y193228D02*
D03*
X166535Y198425D02*
D03*
Y201457D02*
D03*
X200827Y219614D02*
D03*
X190551Y212093D02*
D03*
X190354Y207303D02*
D03*
X192913Y165157D02*
D03*
X194882Y168110D02*
D03*
X190881D02*
D03*
X192913Y171260D02*
D03*
X194882Y174409D02*
D03*
X191245Y174468D02*
D03*
X207042Y185354D02*
D03*
X197638Y176772D02*
D03*
X204331Y200394D02*
D03*
X207874Y192520D02*
D03*
X180315Y182677D02*
D03*
M02*
