G04*
G04 #@! TF.GenerationSoftware,Altium Limited,Altium Designer,19.0.15 (446)*
G04*
G04 Layer_Color=8388736*
%FSLAX25Y25*%
%MOIN*%
G70*
G01*
G75*
%ADD40R,0.07887X0.04737*%
%ADD41R,0.10800X0.11312*%
%ADD42R,0.05800X0.03800*%
%ADD43R,0.04068X0.03280*%
G04:AMPARAMS|DCode=44|XSize=133.98mil|YSize=76.9mil|CornerRadius=6.07mil|HoleSize=0mil|Usage=FLASHONLY|Rotation=90.000|XOffset=0mil|YOffset=0mil|HoleType=Round|Shape=RoundedRectangle|*
%AMROUNDEDRECTD44*
21,1,0.13398,0.06476,0,0,90.0*
21,1,0.12185,0.07690,0,0,90.0*
1,1,0.01213,0.03238,0.06093*
1,1,0.01213,0.03238,-0.06093*
1,1,0.01213,-0.03238,-0.06093*
1,1,0.01213,-0.03238,0.06093*
%
%ADD44ROUNDEDRECTD44*%
G04:AMPARAMS|DCode=45|XSize=43.43mil|YSize=76.9mil|CornerRadius=5.95mil|HoleSize=0mil|Usage=FLASHONLY|Rotation=90.000|XOffset=0mil|YOffset=0mil|HoleType=Round|Shape=RoundedRectangle|*
%AMROUNDEDRECTD45*
21,1,0.04343,0.06500,0,0,90.0*
21,1,0.03154,0.07690,0,0,90.0*
1,1,0.01190,0.03250,0.01577*
1,1,0.01190,0.03250,-0.01577*
1,1,0.01190,-0.03250,-0.01577*
1,1,0.01190,-0.03250,0.01577*
%
%ADD45ROUNDEDRECTD45*%
%ADD46R,0.04737X0.07887*%
%ADD47R,0.04343X0.04737*%
%ADD48R,0.03556X0.04343*%
%ADD49R,0.04343X0.03556*%
%ADD50R,0.10249X0.04737*%
%ADD51R,0.10249X0.13792*%
%ADD52R,0.17335X0.06312*%
%ADD53R,0.04540X0.07493*%
%ADD54R,0.07493X0.04540*%
%ADD55R,0.05328X0.06509*%
%ADD56R,0.04540X0.06115*%
%ADD57R,0.11312X0.10800*%
%ADD58R,0.03800X0.05800*%
%ADD59O,0.01902X0.04147*%
%ADD60O,0.04147X0.01902*%
%ADD61R,0.10446X0.10446*%
%ADD62R,0.03950X0.03162*%
%ADD63R,0.06272X0.04698*%
%ADD64R,0.04698X0.06272*%
%ADD65R,0.06902X0.06902*%
%ADD66C,0.06902*%
%ADD67C,0.07099*%
%ADD68R,0.07099X0.07099*%
%ADD69R,0.05918X0.05918*%
%ADD70C,0.05918*%
D40*
X266535Y145669D02*
D03*
Y156693D02*
D03*
D41*
X246569Y148779D02*
D03*
X220472Y192241D02*
D03*
D42*
X246569Y158035D02*
D03*
X220472Y182985D02*
D03*
D43*
X256732Y158327D02*
D03*
Y149547D02*
D03*
D44*
X174902Y218524D02*
D03*
D45*
X150295Y209469D02*
D03*
Y218524D02*
D03*
Y227579D02*
D03*
D46*
X130709Y231122D02*
D03*
X141732D02*
D03*
X271496Y231496D02*
D03*
X260472D02*
D03*
D47*
X135039Y202776D02*
D03*
X141339D02*
D03*
X266772Y213386D02*
D03*
X260472D02*
D03*
D48*
X136614Y208681D02*
D03*
X142126D02*
D03*
X142126Y213386D02*
D03*
X136614D02*
D03*
X142126Y218524D02*
D03*
X136614D02*
D03*
X136614Y224035D02*
D03*
X142126D02*
D03*
X265197Y219291D02*
D03*
X259685D02*
D03*
X265197Y224409D02*
D03*
X259685D02*
D03*
X203150Y171653D02*
D03*
X208661D02*
D03*
X172047Y193228D02*
D03*
X177559D02*
D03*
D49*
X278583Y212795D02*
D03*
Y218307D02*
D03*
X273622Y218307D02*
D03*
Y212795D02*
D03*
X176969Y188504D02*
D03*
Y182992D02*
D03*
X171653Y182992D02*
D03*
Y188504D02*
D03*
X166535Y188504D02*
D03*
Y182992D02*
D03*
X205906Y209370D02*
D03*
Y203858D02*
D03*
X200787Y209370D02*
D03*
Y203858D02*
D03*
X195669Y209449D02*
D03*
Y203937D02*
D03*
X190551Y209370D02*
D03*
Y203858D02*
D03*
X207222Y222173D02*
D03*
Y216661D02*
D03*
X192323Y222047D02*
D03*
Y216535D02*
D03*
X198425Y166457D02*
D03*
Y171968D02*
D03*
D50*
X251417Y209055D02*
D03*
Y218110D02*
D03*
Y227165D02*
D03*
D51*
X228583Y218110D02*
D03*
D52*
X238189Y184370D02*
D03*
Y198937D02*
D03*
X177165Y148937D02*
D03*
Y163504D02*
D03*
D53*
X229921Y167323D02*
D03*
X218898D02*
D03*
X229921Y175652D02*
D03*
X218898D02*
D03*
X229921Y159449D02*
D03*
X218898D02*
D03*
X229921Y151575D02*
D03*
X218898D02*
D03*
X145276Y187323D02*
D03*
X156299D02*
D03*
X145276Y178661D02*
D03*
X156299D02*
D03*
X145276Y169606D02*
D03*
X156299D02*
D03*
X145276Y160945D02*
D03*
X156299D02*
D03*
D54*
X193307Y160945D02*
D03*
Y149921D02*
D03*
D55*
X201575Y159370D02*
D03*
X208661D02*
D03*
D56*
X170473Y199921D02*
D03*
X176772D02*
D03*
D57*
X168366Y174331D02*
D03*
D58*
X177622D02*
D03*
D59*
X190984Y180177D02*
D03*
X192953D02*
D03*
X194921D02*
D03*
X196890D02*
D03*
X198858D02*
D03*
X200827D02*
D03*
Y195728D02*
D03*
X198858D02*
D03*
X196890D02*
D03*
X194921D02*
D03*
X192953D02*
D03*
X190984D02*
D03*
D60*
X203681Y183031D02*
D03*
Y185000D02*
D03*
Y186969D02*
D03*
Y188937D02*
D03*
Y190905D02*
D03*
Y192874D02*
D03*
X188130D02*
D03*
Y190905D02*
D03*
Y188937D02*
D03*
Y186969D02*
D03*
Y185000D02*
D03*
Y183031D02*
D03*
D61*
X195905Y187953D02*
D03*
D62*
X202402Y222272D02*
D03*
Y216563D02*
D03*
X197378Y222272D02*
D03*
Y216563D02*
D03*
D63*
X130315Y223858D02*
D03*
Y217913D02*
D03*
X278583Y232500D02*
D03*
Y226555D02*
D03*
X135827Y189547D02*
D03*
Y195492D02*
D03*
X261811Y200965D02*
D03*
Y206909D02*
D03*
D64*
X264744Y163287D02*
D03*
X270689D02*
D03*
D65*
X280157Y155905D02*
D03*
D66*
X290158D02*
D03*
X300157D02*
D03*
D67*
X120000Y220000D02*
D03*
Y210000D02*
D03*
Y200000D02*
D03*
Y190000D02*
D03*
Y230000D02*
D03*
X110000Y220000D02*
D03*
Y210000D02*
D03*
Y200000D02*
D03*
Y190000D02*
D03*
Y230000D02*
D03*
X300000Y220000D02*
D03*
Y210000D02*
D03*
Y200000D02*
D03*
Y190000D02*
D03*
Y230000D02*
D03*
X290000Y220000D02*
D03*
Y210000D02*
D03*
Y200000D02*
D03*
Y190000D02*
D03*
Y230000D02*
D03*
D68*
X120000Y180000D02*
D03*
X110000D02*
D03*
X300000D02*
D03*
X290000D02*
D03*
D69*
X265748Y178543D02*
D03*
D70*
Y188386D02*
D03*
M02*
