G04*
G04 #@! TF.GenerationSoftware,Altium Limited,Altium Designer,19.0.15 (446)*
G04*
G04 Layer_Color=255*
%FSLAX25Y25*%
%MOIN*%
G70*
G01*
G75*
%ADD15R,0.07087X0.03937*%
%ADD16R,0.10000X0.10512*%
%ADD17R,0.05000X0.03000*%
%ADD18R,0.03268X0.02480*%
G04:AMPARAMS|DCode=19|XSize=125.98mil|YSize=68.9mil|CornerRadius=2.07mil|HoleSize=0mil|Usage=FLASHONLY|Rotation=90.000|XOffset=0mil|YOffset=0mil|HoleType=Round|Shape=RoundedRectangle|*
%AMROUNDEDRECTD19*
21,1,0.12598,0.06476,0,0,90.0*
21,1,0.12185,0.06890,0,0,90.0*
1,1,0.00413,0.03238,0.06093*
1,1,0.00413,0.03238,-0.06093*
1,1,0.00413,-0.03238,-0.06093*
1,1,0.00413,-0.03238,0.06093*
%
%ADD19ROUNDEDRECTD19*%
G04:AMPARAMS|DCode=20|XSize=35.43mil|YSize=68.9mil|CornerRadius=1.95mil|HoleSize=0mil|Usage=FLASHONLY|Rotation=90.000|XOffset=0mil|YOffset=0mil|HoleType=Round|Shape=RoundedRectangle|*
%AMROUNDEDRECTD20*
21,1,0.03543,0.06500,0,0,90.0*
21,1,0.03154,0.06890,0,0,90.0*
1,1,0.00390,0.03250,0.01577*
1,1,0.00390,0.03250,-0.01577*
1,1,0.00390,-0.03250,-0.01577*
1,1,0.00390,-0.03250,0.01577*
%
%ADD20ROUNDEDRECTD20*%
%ADD21R,0.03937X0.07087*%
%ADD22R,0.03543X0.03937*%
%ADD23R,0.02756X0.03543*%
%ADD24R,0.03543X0.02756*%
%ADD25R,0.09449X0.03937*%
%ADD26R,0.09449X0.12992*%
%ADD27R,0.16535X0.05512*%
%ADD28R,0.03740X0.06693*%
%ADD29R,0.06693X0.03740*%
%ADD30R,0.04528X0.05709*%
%ADD31R,0.03740X0.05315*%
%ADD32R,0.10512X0.10000*%
%ADD33R,0.03000X0.05000*%
%ADD34O,0.01102X0.03347*%
%ADD35O,0.03347X0.01102*%
%ADD36R,0.09646X0.09646*%
%ADD37R,0.03150X0.02362*%
%ADD38R,0.05472X0.03898*%
%ADD39R,0.03898X0.05472*%
%ADD73R,0.06102X0.06102*%
%ADD74C,0.06102*%
%ADD75C,0.06299*%
%ADD76R,0.06299X0.06299*%
%ADD77R,0.05118X0.05118*%
%ADD78C,0.05118*%
D15*
X266535Y145669D02*
D03*
Y156693D02*
D03*
D16*
X246569Y148779D02*
D03*
X220472Y192241D02*
D03*
D17*
X246569Y158035D02*
D03*
X220472Y182985D02*
D03*
D18*
X256732Y158327D02*
D03*
Y149547D02*
D03*
D19*
X174902Y218524D02*
D03*
D20*
X150295Y209469D02*
D03*
Y218524D02*
D03*
Y227579D02*
D03*
D21*
X130709Y231122D02*
D03*
X141732D02*
D03*
X271496Y231496D02*
D03*
X260472D02*
D03*
D22*
X135039Y202776D02*
D03*
X141339D02*
D03*
X266772Y213386D02*
D03*
X260472D02*
D03*
D23*
X136614Y208681D02*
D03*
X142126D02*
D03*
X142126Y213386D02*
D03*
X136614D02*
D03*
X142126Y218524D02*
D03*
X136614D02*
D03*
X136614Y224035D02*
D03*
X142126D02*
D03*
X265197Y219291D02*
D03*
X259685D02*
D03*
X265197Y224409D02*
D03*
X259685D02*
D03*
X203150Y171653D02*
D03*
X208661D02*
D03*
X172047Y193228D02*
D03*
X177559D02*
D03*
D24*
X278583Y212795D02*
D03*
Y218307D02*
D03*
X273622Y218307D02*
D03*
Y212795D02*
D03*
X176969Y188504D02*
D03*
Y182992D02*
D03*
X171653Y182992D02*
D03*
Y188504D02*
D03*
X166535Y188504D02*
D03*
Y182992D02*
D03*
X205906Y209370D02*
D03*
Y203858D02*
D03*
X200787Y209370D02*
D03*
Y203858D02*
D03*
X195669Y209449D02*
D03*
Y203937D02*
D03*
X190551Y209370D02*
D03*
Y203858D02*
D03*
X207222Y222173D02*
D03*
Y216661D02*
D03*
X192323Y222047D02*
D03*
Y216535D02*
D03*
X198425Y166457D02*
D03*
Y171968D02*
D03*
D25*
X251417Y209055D02*
D03*
Y218110D02*
D03*
Y227165D02*
D03*
D26*
X228583Y218110D02*
D03*
D27*
X238189Y184370D02*
D03*
Y198937D02*
D03*
X177165Y148937D02*
D03*
Y163504D02*
D03*
D28*
X229921Y167323D02*
D03*
X218898D02*
D03*
X229921Y175652D02*
D03*
X218898D02*
D03*
X229921Y159449D02*
D03*
X218898D02*
D03*
X229921Y151575D02*
D03*
X218898D02*
D03*
X145276Y187323D02*
D03*
X156299D02*
D03*
X145276Y178661D02*
D03*
X156299D02*
D03*
X145276Y169606D02*
D03*
X156299D02*
D03*
X145276Y160945D02*
D03*
X156299D02*
D03*
D29*
X193307Y160945D02*
D03*
Y149921D02*
D03*
D30*
X201575Y159370D02*
D03*
X208661D02*
D03*
D31*
X170473Y199921D02*
D03*
X176772D02*
D03*
D32*
X168366Y174331D02*
D03*
D33*
X177622D02*
D03*
D34*
X190984Y180177D02*
D03*
X192953D02*
D03*
X194921D02*
D03*
X196890D02*
D03*
X198858D02*
D03*
X200827D02*
D03*
Y195728D02*
D03*
X198858D02*
D03*
X196890D02*
D03*
X194921D02*
D03*
X192953D02*
D03*
X190984D02*
D03*
D35*
X203681Y183031D02*
D03*
Y185000D02*
D03*
Y186969D02*
D03*
Y188937D02*
D03*
Y190905D02*
D03*
Y192874D02*
D03*
X188130D02*
D03*
Y190905D02*
D03*
Y188937D02*
D03*
Y186969D02*
D03*
Y185000D02*
D03*
Y183031D02*
D03*
D36*
X195905Y187953D02*
D03*
D37*
X202402Y222272D02*
D03*
Y216563D02*
D03*
X197378Y222272D02*
D03*
Y216563D02*
D03*
D38*
X130315Y223858D02*
D03*
Y217913D02*
D03*
X278583Y232500D02*
D03*
Y226555D02*
D03*
X135827Y189547D02*
D03*
Y195492D02*
D03*
X261811Y200965D02*
D03*
Y206909D02*
D03*
D39*
X264744Y163287D02*
D03*
X270689D02*
D03*
D73*
X280157Y155905D02*
D03*
D74*
X290158D02*
D03*
X300157D02*
D03*
D75*
X120000Y220000D02*
D03*
Y210000D02*
D03*
Y200000D02*
D03*
Y190000D02*
D03*
Y230000D02*
D03*
X110000Y220000D02*
D03*
Y210000D02*
D03*
Y200000D02*
D03*
Y190000D02*
D03*
Y230000D02*
D03*
X300000Y220000D02*
D03*
Y210000D02*
D03*
Y200000D02*
D03*
Y190000D02*
D03*
Y230000D02*
D03*
X290000Y220000D02*
D03*
Y210000D02*
D03*
Y200000D02*
D03*
Y190000D02*
D03*
Y230000D02*
D03*
D76*
X120000Y180000D02*
D03*
X110000D02*
D03*
X300000D02*
D03*
X290000D02*
D03*
D77*
X265748Y178543D02*
D03*
D78*
Y188386D02*
D03*
M02*
